# This file uses centimeters as units for non-parametric coordinates.

mtllib counter top obj.mtl
g default
v 5.440299 0.526310 3.161442
v 11.843283 0.526310 3.161442
v 5.440299 6.582105 3.161442
v 11.843283 6.582105 3.161442
v 5.440299 6.582105 -2.982338
v 11.843283 6.582105 -2.982338
v 5.440299 0.526310 -2.982338
v 11.843283 0.526310 -2.982338
v 5.440299 7.318118 3.161442
v 11.843283 7.318118 3.161442
v 11.843283 7.318118 -2.982338
v 5.440299 7.318118 -2.982338
v 5.440299 6.582105 4.327586
v 11.843283 6.582105 4.327586
v 11.843283 7.318118 4.327586
v 5.440299 7.318118 4.327586
vt 0.511432 0.001992
vt 0.620574 0.001992
vt 0.620574 0.457409
vt 0.511432 0.457409
vt 0.620574 0.512760
vt 0.511432 0.512760
vt 0.490716 0.512760
vt 0.490716 0.457409
vt 0.626965 0.001992
vt 0.736107 0.001992
vt 0.736107 0.457409
vt 0.626965 0.457409
vt 0.736107 0.512760
vt 0.626965 0.512760
vt 0.756823 0.457409
vt 0.756823 0.512760
vt 0.359979 0.998008
vt 0.359979 0.516481
vt 0.469121 0.516481
vt 0.469121 0.998008
vt 0.339263 0.998008
vt 0.339263 0.516481
vt 0.224402 0.998008
vt 0.224402 0.516481
vt 0.333544 0.516481
vt 0.333544 0.998008
vt 0.136898 0.998008
vt 0.136898 0.516481
vt 0.157614 0.516481
vt 0.157614 0.998008
vt 0.474840 0.998008
vt 0.474840 0.516481
vt 0.930257 0.516481
vt 0.930257 0.998008
vt 0.001857 0.057343
vt 0.483384 0.057343
vt 0.483384 0.512760
vt 0.001857 0.512760
vt 0.001857 0.001992
vt 0.483384 0.001992
vt 0.163333 0.998008
vt 0.163333 0.516481
vt 0.218683 0.516481
vt 0.218683 0.998008
vn 0.000000 0.000000 1.000000
vn 0.000000 0.000000 1.000000
vn 0.000000 0.000000 1.000000
vn 0.000000 0.000000 1.000000
vn 0.000000 1.000000 0.000000
vn 0.000000 1.000000 0.000000
vn 0.000000 1.000000 0.000000
vn 0.000000 1.000000 0.000000
vn 0.000000 0.000000 -1.000000
vn 0.000000 0.000000 -1.000000
vn 0.000000 0.000000 -1.000000
vn 0.000000 0.000000 -1.000000
vn 0.000000 -1.000000 0.000000
vn 0.000000 -1.000000 0.000000
vn 0.000000 -1.000000 0.000000
vn 0.000000 -1.000000 0.000000
vn 1.000000 0.000000 0.000000
vn 1.000000 0.000000 0.000000
vn 1.000000 0.000000 0.000000
vn 1.000000 0.000000 0.000000
vn -1.000000 0.000000 0.000000
vn -1.000000 0.000000 0.000000
vn -1.000000 0.000000 0.000000
vn -1.000000 0.000000 0.000000
vn 0.000000 0.000000 1.000000
vn 0.000000 0.000000 1.000000
vn 0.000000 0.000000 1.000000
vn 0.000000 0.000000 1.000000
vn 1.000000 0.000000 0.000000
vn 1.000000 0.000000 0.000000
vn 1.000000 0.000000 0.000000
vn 1.000000 0.000000 0.000000
vn 0.000000 0.000000 -1.000000
vn 0.000000 0.000000 -1.000000
vn 0.000000 0.000000 -1.000000
vn 0.000000 0.000000 -1.000000
vn -1.000000 0.000000 0.000000
vn -1.000000 0.000000 0.000000
vn -1.000000 0.000000 0.000000
vn -1.000000 0.000000 0.000000
vn 0.000000 -1.000000 0.000000
vn 0.000000 -1.000000 0.000000
vn 0.000000 -1.000000 0.000000
vn 0.000000 -1.000000 0.000000
vn 1.000000 0.000000 0.000000
vn 1.000000 0.000000 0.000000
vn 1.000000 0.000000 0.000000
vn 1.000000 0.000000 0.000000
vn 0.000000 1.000000 0.000000
vn 0.000000 1.000000 0.000000
vn 0.000000 1.000000 0.000000
vn 0.000000 1.000000 0.000000
vn -1.000000 0.000000 0.000000
vn -1.000000 0.000000 0.000000
vn -1.000000 0.000000 0.000000
vn -1.000000 0.000000 0.000000
s off
g pCube6
usemtl initialShadingGroup
f 1/31/1 2/32/2 4/33/3 3/34/4
f 9/17/5 10/18/6 11/19/7 12/20/8
f 5/35/9 6/36/10 8/37/11 7/38/12
f 7/23/13 8/24/14 2/25/15 1/26/16
f 2/1/17 8/2/18 6/3/19 4/4/20
f 7/9/21 1/10/22 3/11/23 5/12/24
f 13/41/25 14/42/26 15/43/27 16/44/28
f 4/4/29 6/3/30 11/5/31 10/6/32
f 6/36/33 5/35/34 12/39/35 11/40/36
f 5/12/37 3/11/38 9/13/39 12/14/40
f 3/27/41 4/28/42 14/29/43 13/30/44
f 4/4/45 10/6/46 15/7/47 14/8/48
f 10/18/49 9/17/50 16/21/51 15/22/52
f 9/13/53 3/11/54 13/15/55 16/16/56
