# This file uses centimeters as units for non-parametric coordinates.

mtllib med chair.mtl
g default
v -14.250723 1.252892 2.766821
v -2.814291 1.252892 2.766821
v -14.250723 2.953654 2.766821
v -2.814291 2.953654 2.766821
v -14.250723 2.953654 -2.766821
v -2.814291 2.953654 -2.766821
v -14.250723 1.252892 -2.766821
v -2.814291 1.252892 -2.766821
v -14.203331 3.012450 2.426852
v -8.534607 3.012450 2.426852
v -14.203331 4.012450 2.426852
v -8.534607 4.012450 2.426852
v -14.203331 4.012450 -2.734321
v -8.534607 4.012450 -2.734321
v -14.203331 3.012450 -2.734321
v -8.534607 3.012450 -2.734321
v -8.476242 3.012449 2.426852
v -2.807518 3.012450 2.426852
v -8.476242 4.012449 2.426852
v -2.807518 4.012450 2.426852
v -8.476242 4.012449 -2.734321
v -2.807518 4.012450 -2.734321
v -8.476242 3.012449 -2.734321
v -2.807518 3.012450 -2.734321
v -14.649939 1.070021 2.916036
v -13.649939 1.070021 2.916036
v -14.649939 5.571524 2.916036
v -13.649939 5.571524 2.916036
v -14.649939 5.571524 -3.255885
v -13.649939 5.571524 -3.255885
v -14.649939 1.070021 -3.255885
v -13.649939 1.070021 -3.255885
v -14.244196 6.148515 2.916036
v -14.055681 6.148515 2.916036
v -14.055681 6.148515 -3.255885
v -14.244196 6.148515 -3.255885
v -2.415075 1.070021 2.916036
v -3.415075 1.070021 2.916036
v -2.415075 5.571524 2.916036
v -3.415075 5.571524 2.916036
v -2.415075 5.571524 -3.255885
v -3.415075 5.571524 -3.255885
v -2.415075 1.070021 -3.255885
v -3.415075 1.070021 -3.255885
v -2.820818 6.148515 2.916036
v -3.009333 6.148515 2.916036
v -3.009333 6.148515 -3.255885
v -2.820818 6.148515 -3.255885
v -14.682198 1.038881 -2.546153
v -2.382816 1.038881 -2.546153
v -14.682198 7.137938 -2.546153
v -2.382816 7.137938 -2.546153
v -14.682198 7.137938 -3.901708
v -2.382816 7.137938 -3.901708
v -14.682198 1.038881 -3.901708
v -2.382816 1.038881 -3.901708
v -13.395866 8.554114 -2.845663
v -3.669147 8.554114 -2.845663
v -3.669147 8.554114 -3.602198
v -13.395866 8.554114 -3.602198
vt 0.775921 0.718031
vt 0.775921 0.548685
vt 0.827970 0.548685
vt 0.827970 0.718031
vt 0.834390 0.759140
vt 0.834390 0.589794
vt 0.886438 0.589794
vt 0.886438 0.759140
vt 0.892858 0.747742
vt 0.892858 0.589794
vt 0.923461 0.589794
vt 0.923461 0.747742
vt 0.929888 0.747742
vt 0.929888 0.589794
vt 0.960491 0.589794
vt 0.960491 0.747742
vt 0.967405 0.815420
vt 0.967405 0.657472
vt 0.998008 0.657472
vt 0.998008 0.815420
vt 0.930667 0.909681
vt 0.930667 0.751733
vt 0.961270 0.751733
vt 0.961270 0.909681
vt 0.669422 0.544693
vt 0.669422 0.355814
vt 0.807181 0.355814
vt 0.807181 0.544693
vt 0.824839 0.355814
vt 0.824839 0.544693
vt 0.507869 0.571102
vt 0.507869 0.382223
vt 0.645629 0.382223
vt 0.645629 0.571102
vt 0.663287 0.382223
vt 0.663287 0.571102
vt 0.297674 0.382223
vt 0.435434 0.382223
vt 0.435434 0.571102
vt 0.297674 0.571102
vt 0.453091 0.382223
vt 0.453091 0.571102
vt 0.136122 0.382223
vt 0.273881 0.382223
vt 0.273881 0.571102
vt 0.136122 0.571102
vt 0.291539 0.382223
vt 0.291539 0.571102
vt 0.927236 0.355814
vt 0.968720 0.355814
vt 0.968720 0.542464
vt 0.927236 0.542464
vt 0.959555 0.585803
vt 0.936402 0.585803
vt 0.879617 0.355814
vt 0.921101 0.355814
vt 0.921101 0.542464
vt 0.879617 0.542464
vt 0.911935 0.585803
vt 0.888783 0.585803
vt 0.584924 0.351823
vt 0.584924 0.001833
vt 0.754270 0.001833
vt 0.754270 0.351823
vt 0.820747 0.351823
vt 0.820747 0.001833
vt 0.990093 0.001833
vt 0.990093 0.351823
vt 0.001992 0.748574
vt 0.001992 0.575094
vt 0.159939 0.575094
vt 0.159939 0.748574
vt 0.204878 0.748574
vt 0.204878 0.575094
vt 0.362825 0.575094
vt 0.362825 0.748574
vt 0.407569 0.748574
vt 0.407569 0.575094
vt 0.565516 0.575094
vt 0.565516 0.748574
vt 0.610260 0.748574
vt 0.610260 0.575094
vt 0.768207 0.575094
vt 0.768207 0.748574
vt 0.867713 0.355814
vt 0.873482 0.355814
vt 0.873482 0.544693
vt 0.867713 0.544693
vt 0.830974 0.355814
vt 0.861577 0.355814
vt 0.861577 0.544693
vt 0.830974 0.544693
vt 0.501734 0.382223
vt 0.501734 0.571102
vt 0.495965 0.571102
vt 0.495965 0.382223
vt 0.489830 0.382223
vt 0.489830 0.571102
vt 0.459227 0.571102
vt 0.459227 0.382223
vt 0.974856 0.653481
vt 0.974856 0.355814
vt 0.998008 0.355814
vt 0.998008 0.653481
vt 0.477731 0.378231
vt 0.477731 0.001833
vt 0.519215 0.001833
vt 0.519215 0.378231
vt 0.526455 0.351823
vt 0.526455 0.001833
vt 0.578504 0.001833
vt 0.578504 0.351823
vt 0.762278 0.351823
vt 0.762278 0.001833
vt 0.814327 0.001833
vt 0.814327 0.351823
vt 0.099383 0.555703
vt 0.099383 0.382223
vt 0.129986 0.382223
vt 0.129986 0.555703
vt 0.167848 0.748574
vt 0.167848 0.575094
vt 0.198451 0.575094
vt 0.198451 0.748574
vt 0.370539 0.748574
vt 0.370539 0.575094
vt 0.401142 0.575094
vt 0.401142 0.748574
vt 0.573230 0.748574
vt 0.573230 0.575094
vt 0.603833 0.575094
vt 0.603833 0.748574
vt 0.893928 0.751733
vt 0.924531 0.751733
vt 0.924531 0.889493
vt 0.893928 0.889493
vt 0.912114 0.907150
vt 0.906345 0.907150
vt 0.857190 0.780789
vt 0.887793 0.780789
vt 0.887793 0.918549
vt 0.857190 0.918549
vt 0.869607 0.763132
vt 0.875376 0.763132
vt 0.851055 0.763132
vt 0.851055 0.900891
vt 0.820452 0.900891
vt 0.820452 0.763132
vt 0.838638 0.918549
vt 0.832869 0.918549
vt 0.814316 0.739680
vt 0.814316 0.877440
vt 0.783713 0.877440
vt 0.783713 0.739680
vt 0.796130 0.722023
vt 0.801899 0.722023
vt 0.001992 0.378231
vt 0.001992 0.001833
vt 0.188642 0.001833
vt 0.188642 0.378231
vt 0.231981 0.041199
vt 0.231981 0.338866
vt 0.283298 0.378231
vt 0.283298 0.001833
vt 0.469948 0.001833
vt 0.469948 0.378231
vt 0.239959 0.338866
vt 0.239959 0.041199
vn 0.000000 0.000000 1.000000
vn 0.000000 0.000000 1.000000
vn 0.000000 0.000000 1.000000
vn 0.000000 0.000000 1.000000
vn 0.000000 1.000000 0.000000
vn 0.000000 1.000000 0.000000
vn 0.000000 1.000000 0.000000
vn 0.000000 1.000000 0.000000
vn 0.000000 0.000000 -1.000000
vn 0.000000 0.000000 -1.000000
vn 0.000000 0.000000 -1.000000
vn 0.000000 0.000000 -1.000000
vn 0.000000 -1.000000 0.000000
vn 0.000000 -1.000000 0.000000
vn 0.000000 -1.000000 0.000000
vn 0.000000 -1.000000 0.000000
vn 1.000000 0.000000 0.000000
vn 1.000000 0.000000 0.000000
vn 1.000000 0.000000 0.000000
vn 1.000000 0.000000 0.000000
vn -1.000000 0.000000 0.000000
vn -1.000000 0.000000 0.000000
vn -1.000000 0.000000 0.000000
vn -1.000000 0.000000 0.000000
vn 0.000000 0.000000 1.000000
vn 0.000000 0.000000 1.000000
vn 0.000000 0.000000 1.000000
vn 0.000000 0.000000 1.000000
vn 0.000000 1.000000 0.000000
vn 0.000000 1.000000 0.000000
vn 0.000000 1.000000 0.000000
vn 0.000000 1.000000 0.000000
vn 0.000000 0.000000 -1.000000
vn 0.000000 0.000000 -1.000000
vn 0.000000 0.000000 -1.000000
vn 0.000000 0.000000 -1.000000
vn 0.000000 -1.000000 0.000000
vn 0.000000 -1.000000 0.000000
vn 0.000000 -1.000000 0.000000
vn 0.000000 -1.000000 0.000000
vn 1.000000 0.000000 0.000000
vn 1.000000 0.000000 0.000000
vn 1.000000 0.000000 0.000000
vn 1.000000 0.000000 0.000000
vn -1.000000 0.000000 0.000000
vn -1.000000 0.000000 0.000000
vn -1.000000 0.000000 0.000000
vn -1.000000 0.000000 0.000000
vn 0.000000 0.000000 1.000000
vn 0.000000 0.000000 1.000000
vn 0.000000 0.000000 1.000000
vn 0.000000 0.000000 1.000000
vn -0.000000 1.000000 0.000000
vn -0.000000 1.000000 0.000000
vn -0.000000 1.000000 0.000000
vn -0.000000 1.000000 0.000000
vn 0.000000 0.000000 -1.000000
vn 0.000000 0.000000 -1.000000
vn 0.000000 0.000000 -1.000000
vn 0.000000 0.000000 -1.000000
vn 0.000000 -1.000000 0.000000
vn 0.000000 -1.000000 0.000000
vn 0.000000 -1.000000 0.000000
vn 0.000000 -1.000000 0.000000
vn 1.000000 0.000000 0.000000
vn 1.000000 0.000000 0.000000
vn 1.000000 0.000000 0.000000
vn 1.000000 0.000000 0.000000
vn -1.000000 0.000000 0.000000
vn -1.000000 0.000000 0.000000
vn -1.000000 0.000000 0.000000
vn -1.000000 0.000000 0.000000
vn 0.000000 0.000000 1.000000
vn 0.000000 0.000000 1.000000
vn 0.000000 0.000000 1.000000
vn 0.000000 0.000000 1.000000
vn 0.000000 1.000000 0.000000
vn 0.000000 1.000000 0.000000
vn 0.000000 1.000000 0.000000
vn 0.000000 1.000000 0.000000
vn 0.000000 0.000000 -1.000000
vn 0.000000 0.000000 -1.000000
vn 0.000000 0.000000 -1.000000
vn 0.000000 0.000000 -1.000000
vn 0.000000 -1.000000 0.000000
vn 0.000000 -1.000000 0.000000
vn 0.000000 -1.000000 0.000000
vn 0.000000 -1.000000 0.000000
vn 1.000000 0.000000 0.000000
vn 1.000000 0.000000 0.000000
vn 1.000000 0.000000 0.000000
vn 1.000000 0.000000 0.000000
vn -1.000000 0.000000 0.000000
vn -1.000000 0.000000 0.000000
vn -1.000000 0.000000 0.000000
vn -1.000000 0.000000 0.000000
vn 0.000000 0.000000 1.000000
vn 0.000000 0.000000 1.000000
vn 0.000000 0.000000 1.000000
vn 0.000000 0.000000 1.000000
vn 0.817999 0.575220 0.000000
vn 0.817999 0.575220 0.000000
vn 0.817999 0.575220 0.000000
vn 0.817999 0.575220 0.000000
vn 0.000000 0.000000 -1.000000
vn 0.000000 0.000000 -1.000000
vn 0.000000 0.000000 -1.000000
vn 0.000000 0.000000 -1.000000
vn -0.817999 0.575220 0.000000
vn -0.817999 0.575220 0.000000
vn -0.817999 0.575220 0.000000
vn -0.817999 0.575220 0.000000
vn 0.000000 0.000000 1.000000
vn 0.000000 0.000000 1.000000
vn 0.000000 0.000000 1.000000
vn 0.000000 0.000000 1.000000
vn 0.000000 1.000000 0.000000
vn 0.000000 1.000000 0.000000
vn 0.000000 1.000000 0.000000
vn 0.000000 1.000000 0.000000
vn 0.000000 0.000000 -1.000000
vn 0.000000 0.000000 -1.000000
vn 0.000000 0.000000 -1.000000
vn 0.000000 0.000000 -1.000000
vn 0.000000 -1.000000 0.000000
vn 0.000000 -1.000000 0.000000
vn 0.000000 -1.000000 0.000000
vn 0.000000 -1.000000 0.000000
vn -1.000000 0.000000 0.000000
vn -1.000000 0.000000 0.000000
vn -1.000000 0.000000 0.000000
vn -1.000000 0.000000 0.000000
vn 1.000000 0.000000 0.000000
vn 1.000000 0.000000 0.000000
vn 1.000000 0.000000 0.000000
vn 1.000000 0.000000 0.000000
vn 0.000000 0.000000 1.000000
vn 0.000000 0.000000 1.000000
vn 0.000000 0.000000 1.000000
vn 0.000000 0.000000 1.000000
vn -0.817999 0.575220 0.000000
vn -0.817999 0.575220 0.000000
vn -0.817999 0.575220 0.000000
vn -0.817999 0.575220 0.000000
vn 0.000000 0.000000 -1.000000
vn 0.000000 0.000000 -1.000000
vn 0.000000 0.000000 -1.000000
vn 0.000000 0.000000 -1.000000
vn 0.817999 0.575220 0.000000
vn 0.817999 0.575220 0.000000
vn 0.817999 0.575220 0.000000
vn 0.817999 0.575220 0.000000
vn 0.000000 0.000000 1.000000
vn 0.000000 0.000000 1.000000
vn 0.000000 0.000000 1.000000
vn 0.000000 0.000000 1.000000
vn 0.000000 1.000000 0.000000
vn 0.000000 1.000000 0.000000
vn 0.000000 1.000000 0.000000
vn 0.000000 1.000000 0.000000
vn 0.000000 0.000000 -1.000000
vn 0.000000 0.000000 -1.000000
vn 0.000000 0.000000 -1.000000
vn 0.000000 0.000000 -1.000000
vn 0.000000 -1.000000 0.000000
vn 0.000000 -1.000000 0.000000
vn 0.000000 -1.000000 0.000000
vn 0.000000 -1.000000 0.000000
vn 1.000000 0.000000 0.000000
vn 1.000000 0.000000 0.000000
vn 1.000000 0.000000 0.000000
vn 1.000000 0.000000 0.000000
vn -1.000000 0.000000 0.000000
vn -1.000000 0.000000 0.000000
vn -1.000000 0.000000 0.000000
vn -1.000000 0.000000 0.000000
vn 0.000000 0.206915 0.978359
vn 0.000000 0.206915 0.978359
vn 0.000000 0.206915 0.978359
vn 0.000000 0.206915 0.978359
vn 0.740227 0.672357 0.000000
vn 0.740227 0.672357 0.000000
vn 0.740227 0.672357 0.000000
vn 0.740227 0.672357 0.000000
vn 0.000000 0.206915 -0.978359
vn 0.000000 0.206915 -0.978359
vn 0.000000 0.206915 -0.978359
vn 0.000000 0.206915 -0.978359
vn -0.740227 0.672357 0.000000
vn -0.740227 0.672357 0.000000
vn -0.740227 0.672357 0.000000
vn -0.740227 0.672357 0.000000
s off
g pCube27
usemtl lambert3SG
f 1/109/1 2/110/2 4/111/3 3/112/4
f 3/61/5 4/62/6 6/63/7 5/64/8
f 5/113/9 6/114/10 8/115/11 7/116/12
f 7/65/13 8/66/14 2/67/15 1/68/16
f 2/1/17 8/2/18 6/3/19 4/4/20
f 7/5/21 1/6/22 3/7/23 5/8/24
f 9/117/25 10/118/26 12/119/27 11/120/28
f 11/69/29 12/70/30 14/71/31 13/72/32
f 13/121/33 14/122/34 16/123/35 15/124/36
f 15/73/37 16/74/38 10/75/39 9/76/40
f 10/9/41 16/10/42 14/11/43 12/12/44
f 15/13/45 9/14/46 11/15/47 13/16/48
f 17/125/49 18/126/50 20/127/51 19/128/52
f 19/77/53 20/78/54 22/79/55 21/80/56
f 21/129/57 22/130/58 24/131/59 23/132/60
f 23/81/61 24/82/62 18/83/63 17/84/64
f 18/17/65 24/18/66 22/19/67 20/20/68
f 23/21/69 17/22/70 19/23/71 21/24/72
f 25/133/73 26/134/74 28/135/75 27/136/76
f 33/85/77 34/86/78 35/87/79 36/88/80
f 29/139/81 30/140/82 32/141/83 31/142/84
f 31/89/85 32/90/86 26/91/87 25/92/88
f 26/25/89 32/26/90 30/27/91 28/28/92
f 31/31/93 25/32/94 27/33/95 29/34/96
f 27/136/97 28/135/98 34/137/99 33/138/100
f 28/28/101 30/27/102 35/29/103 34/30/104
f 30/140/105 29/139/106 36/143/107 35/144/108
f 29/34/109 27/33/110 33/35/111 36/36/112
f 37/145/113 39/146/114 40/147/115 38/148/116
f 45/93/117 48/94/118 47/95/119 46/96/120
f 41/151/121 43/152/122 44/153/123 42/154/124
f 43/97/125 37/98/126 38/99/127 44/100/128
f 38/37/129 40/38/130 42/39/131 44/40/132
f 43/43/133 41/44/134 39/45/135 37/46/136
f 39/146/137 45/149/138 46/150/139 40/147/140
f 40/38/141 46/41/142 47/42/143 42/39/144
f 42/154/145 47/155/146 48/156/147 41/151/148
f 41/44/149 48/47/150 45/48/151 39/45/152
f 49/157/153 50/158/154 52/159/155 51/160/156
f 57/101/157 58/102/158 59/103/159 60/104/160
f 53/163/161 54/164/162 56/165/163 55/166/164
f 55/105/165 56/106/166 50/107/167 49/108/168
f 50/49/169 56/50/170 54/51/171 52/52/172
f 55/55/173 49/56/174 51/57/175 53/58/176
f 51/160/177 52/159/178 58/161/179 57/162/180
f 52/52/181 54/51/182 59/53/183 58/54/184
f 54/164/185 53/163/186 60/167/187 59/168/188
f 53/58/189 51/57/190 57/59/191 60/60/192
