# This file uses centimeters as units for non-parametric coordinates.

mtllib microwave obj.mtl
g default
v -3.479198 1.291962 -1.551326
v -3.479198 1.291962 2.295366
v -3.479198 5.632071 2.295366
v -3.479198 5.632071 -1.551326
v 6.648165 1.291962 -1.551326
v 6.648165 1.291962 2.295366
v 6.648165 5.632071 -1.551326
v -2.901750 3.420799 2.295366
v -2.117477 2.384719 2.295366
v -2.117477 2.384719 1.645720
v -2.901750 3.420799 1.645720
v 0.094281 2.041465 2.295366
v 0.094281 2.041465 1.645720
v -2.117477 4.456880 1.645720
v 0.094281 3.420799 1.645720
v -2.117477 4.456880 2.295366
v 2.306039 2.384719 1.645720
v 2.306039 2.384719 2.295366
v 0.094281 4.800134 2.295366
v 0.094281 4.800134 1.645720
v 6.648165 5.632071 2.295366
v 2.306039 4.456880 1.645720
v 3.090312 3.420799 1.645720
v 3.090312 3.420799 2.295366
v 2.306039 4.456880 2.295366
v 3.599487 3.282826 3.323143
v 3.935983 3.282826 3.323143
v 3.599487 4.065743 3.323143
v 3.935983 4.065743 3.323143
v 3.599487 4.065743 2.843439
v 3.935983 4.065743 2.843439
v 3.599487 3.282826 2.843439
v 3.935983 3.282826 2.843439
v 3.599487 4.620076 3.323143
v 3.935983 4.620076 3.323143
v 3.935983 4.620076 2.843439
v 3.599487 4.620076 2.843439
v 3.599487 2.728494 2.843439
v 3.935983 2.728494 2.843439
v 3.935983 2.728494 3.323143
v 3.599487 2.728494 3.323143
v 3.599487 4.065743 2.210485
v 3.935983 4.065743 2.210485
v 3.599487 4.620076 2.210485
v 3.935983 4.620076 2.210485
v 3.599487 3.282826 2.210485
v 3.935983 3.282826 2.210485
v 3.935983 2.728494 2.210485
v 3.599487 2.728494 2.210485
vt 0.530987 0.580591
vt 0.749299 0.580591
vt 0.749299 0.826907
vt 0.530987 0.826907
vt 0.306538 0.580591
vt 0.524851 0.580591
vt 0.524851 0.826907
vt 0.306538 0.826907
vt 0.212024 0.612052
vt 0.239248 0.612052
vt 0.239248 0.656485
vt 0.212024 0.656485
vt 0.212024 0.580591
vt 0.239248 0.580591
vt 0.239248 0.687945
vt 0.212024 0.687945
vt 0.275171 0.580591
vt 0.275171 0.612052
vt 0.275171 0.656485
vt 0.275171 0.687945
vt 0.178663 0.612051
vt 0.205888 0.612051
vt 0.205888 0.656485
vt 0.178663 0.656485
vt 0.178663 0.580591
vt 0.205888 0.580591
vt 0.205888 0.687945
vt 0.178663 0.687945
vt 0.142741 0.612051
vt 0.142741 0.580591
vt 0.142741 0.687945
vt 0.142741 0.656485
vt 0.001992 0.576600
vt 0.001992 0.001838
vt 0.220305 0.001838
vt 0.220305 0.576600
vt 0.961138 0.297397
vt 0.961138 0.171873
vt 0.998008 0.171873
vt 0.998008 0.297397
vt 0.961138 0.046348
vt 0.998008 0.046348
vt 0.961138 0.341907
vt 0.998008 0.341907
vt 0.961138 0.001838
vt 0.998008 0.001838
vt 0.792304 0.750626
vt 0.792304 0.876151
vt 0.755435 0.876151
vt 0.755435 0.750626
vt 0.792304 0.920661
vt 0.755435 0.920661
vt 0.792304 0.625101
vt 0.755435 0.625101
vt 0.792304 0.580591
vt 0.755435 0.580591
vt 0.481629 0.576600
vt 0.481629 0.001838
vt 0.699942 0.001838
vt 0.699942 0.576600
vt 0.117508 0.580591
vt 0.136606 0.580591
vt 0.136606 0.607816
vt 0.117508 0.607816
vt 0.136606 0.643738
vt 0.117508 0.643738
vt 0.092276 0.616513
vt 0.111373 0.616513
vt 0.111373 0.643738
vt 0.092276 0.643738
vt 0.092276 0.580591
vt 0.111373 0.580591
vt 0.060908 0.616513
vt 0.041811 0.616513
vt 0.041811 0.580591
vt 0.060908 0.580591
vt 0.016578 0.580591
vt 0.035675 0.580591
vt 0.035675 0.616513
vt 0.016578 0.616513
vt 0.228265 0.576600
vt 0.228265 0.001838
vt 0.474581 0.001838
vt 0.474581 0.576600
vt 0.935522 0.876151
vt 0.876721 0.920661
vt 0.817920 0.876151
vt 0.876721 0.750626
vt 0.798440 0.750626
vt 0.817920 0.625101
vt 0.955003 0.750626
vt 0.935522 0.625101
vt 0.876721 0.580591
vt 0.828527 0.203758
vt 0.769725 0.248268
vt 0.750245 0.373793
vt 0.769725 0.499317
vt 0.828527 0.543828
vt 0.707708 0.576600
vt 0.707708 0.001838
vt 0.954024 0.001838
vt 0.887328 0.499317
vt 0.906808 0.373793
vt 0.887328 0.248268
vt 0.954024 0.576600
vt 0.281306 0.612052
vt 0.300403 0.612052
vt 0.300403 0.656485
vt 0.281306 0.656485
vt 0.281306 0.580591
vt 0.300403 0.580591
vt 0.300403 0.687945
vt 0.281306 0.687945
vt 0.067043 0.580591
vt 0.086141 0.580591
vt 0.086141 0.625024
vt 0.067043 0.625024
vt 0.021089 0.651965
vt 0.001992 0.651965
vt 0.001992 0.620505
vt 0.021089 0.620505
vt 0.027523 0.620505
vt 0.046621 0.620505
vt 0.046621 0.651965
vt 0.027523 0.651965
vn -1.000000 0.000000 0.000000
vn -1.000000 0.000000 0.000000
vn -1.000000 0.000000 0.000000
vn -1.000000 0.000000 0.000000
vn 0.000000 -1.000000 0.000000
vn 0.000000 -1.000000 0.000000
vn 0.000000 -1.000000 0.000000
vn 0.000000 -1.000000 0.000000
vn 0.000000 0.000000 -1.000000
vn 0.000000 0.000000 -1.000000
vn 0.000000 0.000000 -1.000000
vn 0.000000 0.000000 -1.000000
vn 0.797328 0.603547 0.000000
vn 0.797328 0.603547 0.000000
vn 0.797328 0.603547 0.000000
vn 0.797328 0.603547 0.000000
vn 0.153359 0.988171 0.000000
vn 0.000000 1.000000 0.000000
vn 0.000000 1.000000 0.000000
vn 0.153359 0.988171 0.000000
vn 0.000000 0.000000 1.000000
vn 0.000000 0.000000 1.000000
vn 0.000000 0.000000 1.000000
vn 0.000000 0.000000 1.000000
vn 0.797328 -0.603547 0.000000
vn 0.797328 -0.603547 0.000000
vn 0.797328 -0.603547 0.000000
vn 0.797328 -0.603547 0.000000
vn 0.000000 0.000000 1.000000
vn 0.000000 0.000000 1.000000
vn -0.153359 0.988171 0.000000
vn -0.153359 0.988171 0.000000
vn 0.000000 -1.000000 0.000000
vn 0.153359 -0.988171 0.000000
vn 0.153359 -0.988171 0.000000
vn 0.000000 -1.000000 0.000000
vn 0.000000 1.000000 0.000000
vn 0.000000 1.000000 0.000000
vn 0.000000 1.000000 0.000000
vn 0.000000 1.000000 0.000000
vn 0.000000 0.000000 1.000000
vn 0.000000 0.000000 1.000000
vn 0.000000 0.000000 1.000000
vn 1.000000 0.000000 0.000000
vn 1.000000 0.000000 0.000000
vn 1.000000 0.000000 0.000000
vn 1.000000 0.000000 0.000000
vn -0.797328 0.603547 0.000000
vn -0.797328 0.603547 0.000000
vn -0.797328 0.603547 0.000000
vn -0.797328 0.603547 0.000000
vn -0.153359 -0.988171 0.000000
vn -0.153359 -0.988171 0.000000
vn -0.797328 -0.603547 0.000000
vn -0.797328 -0.603547 0.000000
vn -0.797328 -0.603547 0.000000
vn -0.797328 -0.603547 0.000000
vn -0.000000 0.000000 1.000000
vn -0.000000 0.000000 1.000000
vn -0.000000 0.000000 1.000000
vn -0.000000 0.000000 1.000000
vn -0.000000 0.000000 1.000000
vn -0.000000 0.000000 1.000000
vn -0.000000 0.000000 1.000000
vn -0.000000 0.000000 1.000000
vn 0.000000 0.000000 1.000000
vn 0.000000 0.000000 1.000000
vn 0.000000 0.000000 1.000000
vn 0.000000 0.000000 1.000000
vn 0.000000 0.000000 1.000000
vn 0.000000 0.000000 1.000000
vn 0.000000 0.000000 1.000000
vn 0.000000 0.000000 1.000000
vn 0.000000 1.000000 0.000000
vn 0.000000 1.000000 0.000000
vn 0.000000 1.000000 0.000000
vn 0.000000 1.000000 0.000000
vn 0.000000 0.000000 -1.000000
vn 0.000000 0.000000 -1.000000
vn 0.000000 0.000000 -1.000000
vn 0.000000 0.000000 -1.000000
vn 0.000000 -1.000000 0.000000
vn 0.000000 -1.000000 0.000000
vn 0.000000 -1.000000 0.000000
vn 0.000000 -1.000000 0.000000
vn 1.000000 0.000000 0.000000
vn 1.000000 0.000000 0.000000
vn 1.000000 0.000000 0.000000
vn 1.000000 0.000000 0.000000
vn -1.000000 0.000000 0.000000
vn -1.000000 0.000000 0.000000
vn -1.000000 0.000000 0.000000
vn -1.000000 0.000000 0.000000
vn 0.000000 0.000000 1.000000
vn 0.000000 0.000000 1.000000
vn 0.000000 0.000000 1.000000
vn 0.000000 0.000000 1.000000
vn 1.000000 0.000000 0.000000
vn 1.000000 0.000000 0.000000
vn 1.000000 0.000000 0.000000
vn 1.000000 0.000000 0.000000
vn 0.000000 0.000000 -1.000000
vn 0.000000 0.000000 -1.000000
vn 0.000000 0.000000 -1.000000
vn 0.000000 0.000000 -1.000000
vn -1.000000 0.000000 0.000000
vn -1.000000 0.000000 0.000000
vn -1.000000 0.000000 0.000000
vn -1.000000 0.000000 0.000000
vn 0.000000 0.000000 -1.000000
vn 0.000000 0.000000 -1.000000
vn 0.000000 0.000000 -1.000000
vn 0.000000 0.000000 -1.000000
vn 1.000000 0.000000 0.000000
vn 1.000000 0.000000 0.000000
vn 1.000000 0.000000 0.000000
vn 1.000000 0.000000 0.000000
vn 0.000000 0.000000 1.000000
vn 0.000000 0.000000 1.000000
vn 0.000000 0.000000 1.000000
vn 0.000000 0.000000 1.000000
vn -1.000000 0.000000 0.000000
vn -1.000000 0.000000 0.000000
vn -1.000000 0.000000 0.000000
vn -1.000000 0.000000 0.000000
vn 0.000000 -1.000000 0.000000
vn 0.000000 -1.000000 0.000000
vn 0.000000 -1.000000 0.000000
vn 0.000000 -1.000000 0.000000
vn -1.000000 0.000000 0.000000
vn -1.000000 0.000000 0.000000
vn -1.000000 0.000000 0.000000
vn -1.000000 0.000000 0.000000
vn 0.000000 1.000000 0.000000
vn 0.000000 1.000000 0.000000
vn 0.000000 1.000000 0.000000
vn 0.000000 1.000000 0.000000
vn 1.000000 0.000000 0.000000
vn 1.000000 0.000000 0.000000
vn 1.000000 0.000000 0.000000
vn 1.000000 0.000000 0.000000
vn 0.000000 1.000000 0.000000
vn 0.000000 1.000000 0.000000
vn 0.000000 1.000000 0.000000
vn 0.000000 1.000000 0.000000
vn 1.000000 0.000000 0.000000
vn 1.000000 0.000000 0.000000
vn 1.000000 0.000000 0.000000
vn 1.000000 0.000000 0.000000
vn 0.000000 -1.000000 0.000000
vn 0.000000 -1.000000 0.000000
vn 0.000000 -1.000000 0.000000
vn 0.000000 -1.000000 0.000000
vn -1.000000 0.000000 0.000000
vn -1.000000 0.000000 0.000000
vn -1.000000 0.000000 0.000000
vn -1.000000 0.000000 0.000000
s off
g pCube5
usemtl initialShadingGroup
f 1/1/1 2/2/2 3/3/3 4/4/4
f 1/33/5 5/34/6 6/35/7 2/36/8
f 4/81/9 7/82/10 5/83/11 1/84/12
f 8/43/13 9/37/14 10/40/15 11/44/16
s 1
f 9/37/17 12/38/18 13/39/19 10/40/20
s 2
f 14/85/21 11/86/22 10/87/23 15/88/24
s off
f 16/48/25 8/51/26 11/52/27 14/49/28
s 2
f 10/87/23 13/89/29 17/90/30 15/88/24
s 1
f 12/38/18 18/41/31 17/42/32 13/39/19
s 3
f 19/47/33 16/48/34 14/49/35 20/50/36
s off
f 3/57/37 21/58/38 7/59/39 4/60/40
s 2
f 20/91/41 14/85/21 15/88/24 22/92/42
f 15/88/24 17/90/30 23/93/43 22/92/42
s off
f 6/5/44 5/6/45 7/7/46 21/8/47
f 18/41/48 24/45/49 23/46/50 17/42/51
s 3
f 25/53/52 19/47/33 20/50/36 22/54/53
s off
f 24/55/54 25/53/55 22/54/56 23/56/57
s 4
f 24/94/58 18/95/59 12/96/60 9/97/61 8/98/62 2/99/63 6/100/64 21/101/65
f 2/99/63 8/98/62 16/102/66 19/103/67 25/104/68 24/94/58 21/101/65 3/105/69
s off
f 26/106/70 27/107/71 29/108/72 28/109/73
f 34/61/74 35/62/75 36/63/76 37/64/77
f 30/114/78 31/115/79 33/116/80 32/117/81
f 38/67/82 39/68/83 40/69/84 41/70/85
f 27/9/86 33/10/87 31/11/88 29/12/89
f 32/21/90 26/22/91 28/23/92 30/24/93
f 28/109/94 29/108/95 35/112/96 34/113/97
f 29/12/98 31/11/99 36/15/100 35/16/101
f 43/118/102 42/119/103 44/120/104 45/121/105
f 30/24/106 28/23/107 34/27/108 37/28/109
f 46/122/110 47/123/111 48/124/112 49/125/113
f 33/10/114 27/9/115 40/13/116 39/14/117
f 27/107/118 26/106/119 41/110/120 40/111/121
f 26/22/122 32/21/123 38/25/124 41/26/125
f 31/73/126 30/74/127 42/75/128 43/76/129
f 30/24/130 37/28/131 44/31/132 42/32/133
f 37/64/134 36/63/135 45/65/136 44/66/137
f 36/15/138 31/11/139 43/19/140 45/20/141
f 32/77/142 33/78/143 47/79/144 46/80/145
f 33/10/146 39/14/147 48/17/148 47/18/149
f 39/68/150 38/67/151 49/71/152 48/72/153
f 38/25/154 32/21/155 46/29/156 49/30/157
