# This file uses centimeters as units for non-parametric coordinates.

mtllib pizza box ob.mtl
g default
v -3.733823 3.749879 3.733820
v 3.733823 3.749879 3.733820
v -3.733823 3.758789 3.733820
v 3.733823 3.758789 3.733820
v -3.733823 3.758789 -3.733820
v 3.733823 3.758789 -3.733820
v -3.733823 3.749879 -3.733820
v 3.733823 3.749879 -3.733820
v -4.278196 3.749879 4.278193
v 4.278196 3.749879 4.278193
v 4.278196 4.285208 4.278193
v -4.278196 4.285208 4.278193
v -4.278196 4.285208 -4.278193
v 4.278196 4.285208 -4.278193
v 4.278196 3.749879 -4.278193
v -4.278196 3.749879 -4.278193
v -3.733823 5.100806 3.733820
v 3.733823 5.100806 3.733820
v -4.278196 5.100806 4.278193
v 4.278196 5.100806 4.278193
v -3.733823 5.100806 -3.733820
v 3.733823 5.100806 -3.733820
v 4.278196 5.100806 -4.278193
v -4.278196 5.100806 -4.278193
v -4.278196 4.285208 -5.021107
v 4.278196 4.285208 -5.021107
v 4.278196 3.749879 -5.021107
v -4.278196 3.749879 -5.021107
v -4.278196 5.100806 -5.021107
v 4.278196 5.100806 -5.021107
v -4.278196 12.569510 -1.360140
v 4.278196 12.569510 -1.360140
v 4.278196 12.569510 -2.103054
v -4.278196 12.569510 -2.103054
vt 0.321815 0.342591
vt 0.321815 0.029164
vt 0.341425 0.029164
vt 0.341425 0.342591
vt 0.321815 0.001951
vt 0.341425 0.001951
vt 0.371301 0.029164
vt 0.371301 0.342591
vt 0.371301 0.001951
vt 0.644884 0.108841
vt 0.644884 0.136055
vt 0.651188 0.315377
vt 0.651188 0.001951
vt 0.670798 0.001951
vt 0.670798 0.315377
vt 0.700673 0.001951
vt 0.700673 0.315377
vt 0.670798 0.342591
vt 0.651188 0.342591
vt 0.700673 0.342591
vt 0.974257 0.208487
vt 0.974257 0.235701
vt 0.676524 0.947188
vt 0.676524 0.673643
vt 0.725684 0.673643
vt 0.725684 0.947188
vt 0.733044 0.947188
vt 0.733044 0.673643
vt 0.782203 0.673643
vt 0.782203 0.947188
vt 0.282836 0.937546
vt 0.282836 0.664000
vt 0.556381 0.664000
vt 0.556381 0.937546
vt 0.021933 0.049105
vt 0.295478 0.049105
vt 0.295478 0.322650
vt 0.021933 0.322650
vt 0.001992 0.029164
vt 0.315419 0.029164
vt 0.315419 0.342591
vt 0.001992 0.342591
vt 0.001992 0.001951
vt 0.315419 0.001951
vt 0.329340 0.366523
vt 0.329340 0.640068
vt 0.309399 0.660009
vt 0.309399 0.346582
vt 0.602884 0.640068
vt 0.622825 0.660009
vt 0.602884 0.366523
vt 0.622825 0.346582
vt 0.276050 0.660009
vt 0.276050 0.346582
vt 0.303264 0.346582
vt 0.303264 0.660009
vt 0.628961 0.660009
vt 0.628961 0.346582
vt 0.648570 0.346582
vt 0.648570 0.660009
vt 0.678446 0.346582
vt 0.678446 0.660009
vt 0.684581 0.650042
vt 0.998008 0.650042
vt 0.998008 0.669651
vt 0.684581 0.669651
vt 0.684581 0.620166
vt 0.998008 0.620166
vt 0.684581 0.346582
vt 0.998008 0.346582
vt 0.612644 0.664000
vt 0.612644 0.937546
vt 0.563485 0.937546
vt 0.563485 0.664000
vt 0.620005 0.937546
vt 0.620005 0.664000
vt 0.669164 0.664000
vt 0.669164 0.937546
vt 0.001992 0.977427
vt 0.001992 0.664000
vt 0.275576 0.664000
vt 0.275576 0.977427
vn 0.000000 0.000000 1.000000
vn 0.000000 0.000000 1.000000
vn 0.000000 0.000000 1.000000
vn 0.000000 0.000000 1.000000
vn 0.000000 1.000000 0.000000
vn 0.000000 1.000000 0.000000
vn 0.000000 1.000000 0.000000
vn 0.000000 1.000000 0.000000
vn 0.000000 0.000000 -1.000000
vn 0.000000 0.000000 -1.000000
vn 0.000000 0.000000 -1.000000
vn 0.000000 0.000000 -1.000000
vn 0.000000 -1.000000 0.000000
vn 0.000000 -1.000000 0.000000
vn 0.000000 -1.000000 0.000000
vn 0.000000 -1.000000 0.000000
vn 1.000000 0.000000 0.000000
vn 1.000000 0.000000 0.000000
vn 1.000000 0.000000 0.000000
vn 1.000000 0.000000 0.000000
vn -1.000000 0.000000 0.000000
vn -1.000000 0.000000 0.000000
vn -1.000000 0.000000 0.000000
vn -1.000000 0.000000 0.000000
vn 0.000000 -1.000000 -0.000000
vn 0.000000 -1.000000 -0.000000
vn 0.000000 -1.000000 -0.000000
vn 0.000000 -1.000000 -0.000000
vn 0.000000 1.000000 0.000000
vn 0.000000 1.000000 0.000000
vn 0.000000 1.000000 0.000000
vn 0.000000 1.000000 0.000000
vn 0.000000 1.000000 -0.000000
vn 0.000000 1.000000 -0.000000
vn 0.000000 1.000000 -0.000000
vn 0.000000 1.000000 -0.000000
vn 0.000000 -1.000000 0.000000
vn 0.000000 -1.000000 0.000000
vn 0.000000 -1.000000 0.000000
vn 0.000000 -1.000000 0.000000
vn 0.000000 -1.000000 0.000000
vn 0.000000 -1.000000 0.000000
vn 0.000000 -1.000000 0.000000
vn 0.000000 -1.000000 0.000000
vn 0.000000 1.000000 0.000000
vn 0.000000 1.000000 0.000000
vn 0.000000 1.000000 0.000000
vn 0.000000 1.000000 0.000000
vn 0.000000 -1.000000 0.000000
vn 0.000000 -1.000000 0.000000
vn 0.000000 -1.000000 0.000000
vn 0.000000 -1.000000 0.000000
vn 0.000000 1.000000 0.000000
vn 0.000000 1.000000 0.000000
vn 0.000000 1.000000 0.000000
vn 0.000000 1.000000 0.000000
vn 0.000000 0.000000 -1.000000
vn 0.000000 0.000000 -1.000000
vn 0.000000 0.000000 -1.000000
vn 0.000000 0.000000 -1.000000
vn 0.000000 0.000000 1.000000
vn 0.000000 0.000000 1.000000
vn 0.000000 0.000000 1.000000
vn 0.000000 0.000000 1.000000
vn 0.000000 0.000000 1.000000
vn 0.000000 0.000000 1.000000
vn 0.000000 0.000000 1.000000
vn 0.000000 0.000000 1.000000
vn 0.000000 0.000000 -1.000000
vn 0.000000 0.000000 -1.000000
vn 0.000000 0.000000 -1.000000
vn 0.000000 0.000000 -1.000000
vn -1.000000 0.000000 0.000000
vn -1.000000 0.000000 0.000000
vn -1.000000 0.000000 0.000000
vn -1.000000 0.000000 0.000000
vn 1.000000 0.000000 0.000000
vn 1.000000 0.000000 0.000000
vn 1.000000 0.000000 0.000000
vn 1.000000 0.000000 0.000000
vn 1.000000 0.000000 0.000000
vn 1.000000 0.000000 0.000000
vn 1.000000 0.000000 0.000000
vn 1.000000 0.000000 0.000000
vn -1.000000 0.000000 0.000000
vn -1.000000 0.000000 0.000000
vn -1.000000 0.000000 0.000000
vn -1.000000 0.000000 0.000000
vn 1.000000 0.000000 0.000000
vn 1.000000 0.000000 0.000000
vn 1.000000 0.000000 0.000000
vn 1.000000 0.000000 0.000000
vn 0.000000 -1.000000 0.000000
vn 0.000000 -1.000000 0.000000
vn 0.000000 -1.000000 0.000000
vn 0.000000 -1.000000 0.000000
vn -1.000000 0.000000 0.000000
vn -1.000000 0.000000 0.000000
vn -1.000000 0.000000 0.000000
vn -1.000000 0.000000 0.000000
vn -1.000000 0.000000 0.000000
vn -1.000000 0.000000 0.000000
vn -1.000000 0.000000 0.000000
vn -1.000000 0.000000 0.000000
vn 0.000000 1.000000 0.000000
vn 0.000000 1.000000 0.000000
vn 0.000000 1.000000 0.000000
vn 0.000000 1.000000 0.000000
vn 1.000000 0.000000 0.000000
vn 1.000000 0.000000 0.000000
vn 1.000000 0.000000 0.000000
vn 1.000000 0.000000 0.000000
vn 0.000000 -0.363914 0.931432
vn 0.000000 -0.363914 0.931432
vn 0.000000 -0.363914 0.931432
vn 0.000000 -0.363914 0.931432
vn 1.000000 0.000000 0.000000
vn 1.000000 0.000000 0.000000
vn 1.000000 0.000000 0.000000
vn 1.000000 0.000000 0.000000
vn 0.000000 0.363914 -0.931432
vn 0.000000 0.363914 -0.931432
vn 0.000000 0.363914 -0.931432
vn 0.000000 0.363914 -0.931432
vn -1.000000 0.000000 0.000000
vn -1.000000 0.000000 0.000000
vn -1.000000 0.000000 0.000000
vn -1.000000 0.000000 0.000000
s off
g pCube1
usemtl initialShadingGroup
f 9/57/1 10/58/2 11/59/3 12/60/4
f 3/31/5 4/32/6 6/33/7 5/34/8
f 25/63/9 26/64/10 27/65/11 28/66/12
f 7/35/13 8/36/14 2/37/15 1/38/16
f 10/1/17 15/2/18 14/3/19 11/4/20
f 16/12/21 9/13/22 12/14/23 13/15/24
f 1/38/25 2/37/26 10/41/27 9/42/28
f 18/45/29 17/46/30 19/47/31 20/48/32
f 21/49/33 22/51/34 23/52/35 24/50/36
f 8/36/37 7/35/38 16/39/39 15/40/40
f 2/37/41 8/36/42 15/40/43 10/41/44
f 22/51/45 18/45/46 20/48/47 23/52/48
f 7/35/49 1/38/50 9/42/51 16/39/52
f 17/46/53 21/49/54 24/50/55 19/47/56
f 4/71/57 3/72/58 17/73/59 18/74/60
f 12/60/61 11/59/62 20/61/63 19/62/64
f 5/75/65 6/76/66 22/77/67 21/78/68
f 26/64/69 25/63/70 29/67/71 30/68/72
f 6/23/73 4/24/74 18/25/75 22/26/76
f 11/4/77 14/3/78 23/7/79 20/8/80
f 3/27/81 5/28/82 21/29/83 17/30/84
f 13/15/85 12/14/86 19/16/87 24/17/88
f 14/3/89 15/2/90 27/5/91 26/6/92
f 15/40/93 16/39/94 28/43/95 27/44/96
f 16/12/97 13/15/98 25/18/99 28/19/100
f 13/15/101 24/17/102 29/20/103 25/18/104
f 31/53/105 32/54/106 33/55/107 34/56/108
f 23/7/109 14/3/110 26/6/111 30/9/112
f 24/79/113 23/80/114 32/81/115 31/82/116
f 23/7/117 30/9/118 33/10/119 32/11/120
f 30/68/121 29/67/122 34/69/123 33/70/124
f 29/20/125 24/17/126 31/21/127 34/22/128
