# This file uses centimeters as units for non-parametric coordinates.

mtllib shelf obj.mtl
g default
v -5.468925 2.859307 1.705100
v 5.468925 2.859307 1.705100
v -5.468925 3.459591 1.705100
v 5.468925 3.459591 1.705100
v -5.468925 3.459591 -1.705100
v 5.468925 3.459591 -1.705100
v -5.468925 2.859307 -1.705100
v 5.468925 2.859307 -1.705100
v -5.468925 3.459591 1.023060
v 5.468925 3.459591 1.023060
v 5.468925 2.859307 1.023060
v -5.468925 2.859307 1.023060
v -4.893248 2.859307 1.705100
v -4.893245 2.859307 1.023060
v -4.893248 2.859307 -1.705100
v -4.893248 3.459591 -1.705100
v -4.893248 3.459591 1.023060
v -4.893248 3.459591 1.705100
v -4.317572 2.859307 1.705100
v -4.317564 2.859307 1.023060
v -4.317572 2.859307 -1.705100
v -4.317572 3.459591 -1.705100
v -4.317572 3.459591 1.023060
v -4.317572 3.459591 1.705100
v -3.741896 2.859307 1.705100
v -3.741884 2.859307 1.023060
v -3.741896 2.859307 -1.705100
v -3.741896 3.459591 -1.705100
v -3.741896 3.459591 1.023060
v -3.741896 3.459591 1.705100
v -3.166219 2.859307 1.705100
v -3.166208 2.859307 1.023060
v -3.166219 2.859307 -1.705100
v -3.166219 3.459591 -1.705100
v -3.166219 3.459591 1.023060
v -3.166219 3.459591 1.705100
v -2.590543 2.859307 1.705100
v -2.590529 2.859307 1.023060
v -2.590543 2.859307 -1.705100
v -2.590543 3.459591 -1.705100
v -2.590543 3.459591 1.023060
v -2.590543 3.459591 1.705100
v -2.014866 2.859307 1.705100
v -2.014851 2.859307 1.023060
v -2.014866 2.859307 -1.705100
v -2.014866 3.459591 -1.705100
v -2.014866 3.459591 1.023060
v -2.014866 3.459591 1.705100
v -1.439190 2.859307 1.705100
v -1.439176 2.859307 1.023060
v -1.439190 2.859307 -1.705100
v -1.439190 3.459591 -1.705100
v -1.439190 3.459591 1.023060
v -1.439190 3.459591 1.705100
v -0.863514 2.859307 1.705100
v -0.863503 2.859307 1.023060
v -0.863514 2.859307 -1.705100
v -0.863514 3.459591 -1.705100
v -0.863514 3.459591 1.023060
v -0.863514 3.459591 1.705100
v -0.287837 2.859307 1.705100
v -0.287828 2.859307 1.023060
v -0.287837 2.859307 -1.705100
v -0.287837 3.459591 -1.705100
v -0.287837 3.459591 1.023060
v -0.287837 3.459591 1.705100
v 0.287839 2.859307 1.705100
v 0.287847 2.859307 1.023060
v 0.287839 2.859307 -1.705100
v 0.287839 3.459591 -1.705100
v 0.287839 3.459591 1.023060
v 0.287839 3.459591 1.705100
v 0.863515 2.859307 1.705100
v 0.863522 2.859307 1.023060
v 0.863515 2.859307 -1.705100
v 0.863515 3.459591 -1.705100
v 0.863515 3.459591 1.023060
v 0.863515 3.459591 1.705100
v 1.439191 2.859307 1.705100
v 1.439198 2.859307 1.023060
v 1.439191 2.859307 -1.705100
v 1.439191 3.459591 -1.705100
v 1.439191 3.459591 1.023060
v 1.439191 3.459591 1.705100
v 2.014867 2.859307 1.705100
v 2.014872 2.859307 1.023060
v 2.014867 2.859307 -1.705100
v 2.014867 3.459591 -1.705100
v 2.014867 3.459591 1.023060
v 2.014867 3.459591 1.705100
v 2.590544 2.859307 1.705100
v 2.590549 2.859307 1.023060
v 2.590544 2.859307 -1.705100
v 2.590544 3.459591 -1.705100
v 2.590544 3.459591 1.023060
v 2.590544 3.459591 1.705100
v 3.166221 2.859307 1.705100
v 3.166224 2.859307 1.023060
v 3.166221 2.859307 -1.705100
v 3.166221 3.459591 -1.705100
v 3.166221 3.459591 1.023060
v 3.166221 3.459591 1.705100
v 3.741897 2.859307 1.705100
v 3.741900 2.859307 1.023060
v 3.741897 2.859307 -1.705100
v 3.741897 3.459591 -1.705100
v 3.741897 3.459591 1.023060
v 3.741897 3.459591 1.705100
v 4.317572 2.859307 1.705100
v 4.317574 2.859307 1.023060
v 4.317572 2.859307 -1.705100
v 4.317572 3.459591 -1.705100
v 4.317572 3.459591 1.023060
v 4.317572 3.459591 1.705100
v 4.893248 2.859307 1.705100
v 4.893250 2.859307 1.023060
v 4.893248 2.859307 -1.705100
v 4.893248 3.459591 -1.705100
v 4.893248 3.459591 1.023060
v 4.893248 3.459591 1.705100
v 4.138668 0.886584 -1.698982
v 4.138669 1.568624 -1.698983
v 4.625571 1.568624 -1.698983
v 4.625570 0.886584 -1.698982
v -4.138663 1.568623 -1.698983
v -4.625571 1.568623 -1.698983
v -4.138669 0.886584 -1.698982
v -4.625570 0.886584 -1.698982
vt 0.220747 0.759676
vt 0.220747 0.582881
vt 0.362183 0.582881
vt 0.362183 0.759676
vt 0.185388 0.582881
vt 0.185388 0.759676
vt 0.361866 0.001877
vt 0.361866 0.202751
vt 0.368590 0.582881
vt 0.510026 0.582881
vt 0.510026 0.759676
vt 0.368590 0.759676
vt 0.545385 0.582881
vt 0.545385 0.759676
vt 0.368907 0.202750
vt 0.368907 0.001877
vt 0.786738 0.582881
vt 0.751379 0.582881
vt 0.610260 0.202751
vt 0.610260 0.001877
vt 0.828821 0.582881
vt 0.793462 0.582881
vt 0.969939 0.001877
vt 0.969939 0.202751
vt 0.988703 0.763668
vt 0.988703 0.622232
vt 0.998008 0.622232
vt 0.998008 0.763668
vt 0.979398 0.763668
vt 0.979398 0.622232
vt 0.988703 0.586873
vt 0.998008 0.586873
vt 0.970093 0.763668
vt 0.970093 0.622232
vt 0.979398 0.586873
vt 0.960788 0.763668
vt 0.960788 0.622232
vt 0.970093 0.586873
vt 0.951483 0.763668
vt 0.951483 0.622232
vt 0.960788 0.586873
vt 0.942178 0.763668
vt 0.942178 0.622232
vt 0.951483 0.586873
vt 0.932873 0.763668
vt 0.932873 0.622232
vt 0.942178 0.586873
vt 0.923568 0.763668
vt 0.923568 0.622232
vt 0.932873 0.586873
vt 0.914263 0.763668
vt 0.914263 0.622232
vt 0.923568 0.586873
vt 0.904958 0.763668
vt 0.904958 0.622232
vt 0.914263 0.586873
vt 0.895653 0.763668
vt 0.895653 0.622232
vt 0.904958 0.586873
vt 0.886348 0.763668
vt 0.886348 0.622232
vt 0.895653 0.586873
vt 0.877043 0.763668
vt 0.877043 0.622232
vt 0.886348 0.586873
vt 0.867738 0.763668
vt 0.867738 0.622232
vt 0.877043 0.586873
vt 0.858433 0.763668
vt 0.858433 0.622232
vt 0.867738 0.586873
vt 0.849128 0.763668
vt 0.849128 0.622232
vt 0.858433 0.586873
vt 0.839823 0.763668
vt 0.839823 0.622232
vt 0.849128 0.586873
vt 0.830518 0.763668
vt 0.830518 0.622232
vt 0.839823 0.586873
vt 0.821213 0.622232
vt 0.821213 0.763668
vt 0.830518 0.586873
vt 0.821213 0.586873
vt 0.622843 0.905104
vt 0.622843 0.763668
vt 0.632148 0.763668
vt 0.632148 0.905104
vt 0.613537 0.905104
vt 0.613537 0.763668
vt 0.604233 0.905104
vt 0.604232 0.763668
vt 0.613537 0.940463
vt 0.622843 0.940463
vt 0.594928 0.905104
vt 0.594927 0.763668
vt 0.604232 0.940463
vt 0.585623 0.905104
vt 0.585623 0.763668
vt 0.594927 0.940463
vt 0.576318 0.905104
vt 0.576317 0.763668
vt 0.585623 0.940463
vt 0.567013 0.905104
vt 0.567013 0.763668
vt 0.576317 0.940463
vt 0.557708 0.905104
vt 0.557707 0.763668
vt 0.567013 0.940463
vt 0.548403 0.905104
vt 0.548402 0.763668
vt 0.557707 0.940463
vt 0.539098 0.905104
vt 0.539097 0.763668
vt 0.548402 0.940463
vt 0.529793 0.905104
vt 0.529792 0.763668
vt 0.539097 0.940463
vt 0.520488 0.905104
vt 0.520487 0.763668
vt 0.529792 0.940463
vt 0.511183 0.905104
vt 0.511182 0.763668
vt 0.520487 0.940463
vt 0.501878 0.905104
vt 0.501877 0.763668
vt 0.511182 0.940463
vt 0.492573 0.905104
vt 0.492572 0.763668
vt 0.501877 0.940463
vt 0.483268 0.905104
vt 0.483267 0.763668
vt 0.492572 0.940463
vt 0.473963 0.905104
vt 0.473962 0.763668
vt 0.483267 0.940463
vt 0.464657 0.905104
vt 0.464657 0.763668
vt 0.473962 0.940463
vt 0.455352 0.763668
vt 0.455352 0.905104
vt 0.464657 0.940463
vt 0.169482 0.759676
vt 0.169482 0.582881
vt 0.178787 0.582881
vt 0.178787 0.759676
vt 0.160177 0.759676
vt 0.160177 0.582881
vt 0.157285 0.001877
vt 0.165155 0.001877
vt 0.150872 0.759676
vt 0.150872 0.582881
vt 0.141567 0.759676
vt 0.141567 0.582881
vt 0.132262 0.759676
vt 0.132262 0.582881
vt 0.122957 0.759676
vt 0.122957 0.582881
vt 0.113652 0.759676
vt 0.113652 0.582881
vt 0.104347 0.759676
vt 0.104347 0.582881
vt 0.095042 0.759676
vt 0.095042 0.582881
vt 0.085737 0.759676
vt 0.085737 0.582881
vt 0.076432 0.759676
vt 0.076432 0.582881
vt 0.067127 0.759676
vt 0.067127 0.582881
vt 0.057822 0.759676
vt 0.057822 0.582881
vt 0.048517 0.759676
vt 0.048517 0.582881
vt 0.039212 0.759676
vt 0.039212 0.582881
vt 0.029907 0.759676
vt 0.029907 0.582881
vt 0.020602 0.759676
vt 0.020602 0.582881
vt 0.011297 0.759676
vt 0.011297 0.582881
vt 0.001992 0.582881
vt 0.001992 0.759676
vt 0.015624 0.001877
vt 0.023494 0.001877
vt 0.815078 0.596178
vt 0.638283 0.596178
vt 0.638283 0.586873
vt 0.815078 0.586873
vt 0.815078 0.605483
vt 0.638283 0.605483
vt 0.815078 0.614788
vt 0.638283 0.614788
vt 0.815078 0.624093
vt 0.638283 0.624093
vt 0.815078 0.633398
vt 0.638283 0.633398
vt 0.815078 0.642704
vt 0.638283 0.642704
vt 0.815078 0.652008
vt 0.638283 0.652008
vt 0.815078 0.661313
vt 0.638283 0.661313
vt 0.815078 0.670618
vt 0.638283 0.670618
vt 0.815078 0.679923
vt 0.638283 0.679923
vt 0.815078 0.689228
vt 0.638283 0.689228
vt 0.815078 0.698533
vt 0.638283 0.698533
vt 0.815078 0.707838
vt 0.638283 0.707838
vt 0.815078 0.717143
vt 0.638283 0.717143
vt 0.815078 0.726448
vt 0.638283 0.726448
vt 0.815078 0.735753
vt 0.638283 0.735753
vt 0.815078 0.745058
vt 0.638283 0.745058
vt 0.815078 0.754363
vt 0.638283 0.754363
vt 0.638283 0.763669
vt 0.815078 0.763669
vt 0.551792 0.582882
vt 0.551792 0.382008
vt 0.559662 0.382008
vt 0.559662 0.582882
vt 0.563988 0.001877
vt 0.573293 0.001877
vt 0.594658 0.382008
vt 0.602528 0.382008
vt 0.602528 0.582882
vt 0.594658 0.582882
vt 0.581026 0.001877
vt 0.590331 0.001877
vn 0.000000 0.000000 1.000000
vn 0.000000 0.000000 1.000000
vn 0.000000 0.000000 1.000000
vn 0.000000 0.000000 1.000000
vn 0.000000 1.000000 0.000000
vn 0.000000 1.000000 0.000000
vn 0.000000 1.000000 0.000000
vn 0.000000 1.000000 0.000000
vn 0.000000 0.000000 -1.000000
vn 0.000000 0.000000 -1.000000
vn 0.000000 0.000000 -1.000000
vn 0.000000 0.000000 -1.000000
vn 0.000000 -1.000000 0.000000
vn 0.000000 -1.000000 0.000000
vn 0.000000 -1.000000 0.000000
vn 0.000000 -1.000000 0.000000
vn 1.000000 0.000000 0.000000
vn 1.000000 0.000000 0.000000
vn 1.000000 0.000000 0.000000
vn 1.000000 0.000000 0.000000
vn -1.000000 0.000000 0.000000
vn -1.000000 0.000000 0.000000
vn -1.000000 0.000000 0.000000
vn -1.000000 0.000000 0.000000
vn 0.000000 1.000000 0.000000
vn 0.000000 1.000000 0.000000
vn 1.000000 0.000000 0.000000
vn 1.000000 0.000000 0.000000
vn 0.000000 -0.000001 -1.000000
vn 0.000000 -0.000001 -1.000000
vn 0.000000 -0.000001 -1.000000
vn 0.000000 -0.000001 -1.000000
vn -1.000000 0.000000 0.000000
vn -1.000000 0.000000 0.000000
vn 0.000000 -0.000001 -1.000000
vn 0.000000 -0.000001 -1.000000
vn 0.000000 -0.000001 -1.000000
vn 0.000000 -0.000001 -1.000000
vn 0.000000 -1.000000 0.000000
vn 0.000000 -1.000000 0.000000
vn 0.000000 -1.000000 0.000000
vn 0.000000 -1.000000 0.000000
vn 0.000000 0.000000 -1.000000
vn 0.000000 0.000000 -1.000000
vn 0.000000 0.000000 -1.000000
vn 0.000000 0.000000 -1.000000
vn 0.000000 1.000000 0.000000
vn 0.000000 1.000000 0.000000
vn 0.000000 1.000000 0.000000
vn 0.000000 1.000000 0.000000
vn 0.000000 1.000000 0.000000
vn 0.000000 1.000000 0.000000
vn 0.000000 0.000000 1.000000
vn 0.000000 0.000000 1.000000
vn 0.000000 0.000000 1.000000
vn 0.000000 0.000000 1.000000
vn 0.000000 -1.000000 0.000000
vn 0.000000 -1.000000 0.000000
vn 0.000000 -1.000000 0.000000
vn 0.000000 -1.000000 0.000000
vn 0.000000 0.000000 -1.000000
vn 0.000000 0.000000 -1.000000
vn 0.000000 1.000000 0.000000
vn 0.000000 1.000000 0.000000
vn 0.000000 1.000000 0.000000
vn 0.000000 0.000000 1.000000
vn 0.000000 0.000000 1.000000
vn 0.000000 -1.000000 0.000000
vn 0.000000 -1.000000 0.000000
vn 0.000000 -1.000000 0.000000
vn 0.000000 0.000000 -1.000000
vn 0.000000 0.000000 -1.000000
vn 0.000000 1.000000 0.000000
vn 0.000000 1.000000 0.000000
vn 0.000000 1.000000 0.000000
vn 0.000000 0.000000 1.000000
vn 0.000000 0.000000 1.000000
vn 0.000000 -1.000000 0.000000
vn 0.000000 -1.000000 0.000000
vn 0.000000 -1.000000 0.000000
vn 0.000000 0.000000 -1.000000
vn 0.000000 0.000000 -1.000000
vn 0.000000 1.000000 0.000000
vn 0.000000 1.000000 0.000000
vn 0.000000 1.000000 0.000000
vn 0.000000 0.000000 1.000000
vn 0.000000 0.000000 1.000000
vn 0.000000 -1.000000 0.000000
vn 0.000000 -1.000000 0.000000
vn 0.000000 -1.000000 0.000000
vn 0.000000 0.000000 -1.000000
vn 0.000000 0.000000 -1.000000
vn 0.000000 1.000000 0.000000
vn 0.000000 1.000000 0.000000
vn 0.000000 1.000000 0.000000
vn 0.000000 0.000000 1.000000
vn 0.000000 0.000000 1.000000
vn 0.000000 -1.000000 0.000000
vn 0.000000 -1.000000 0.000000
vn 0.000000 -1.000000 0.000000
vn 0.000000 0.000000 -1.000000
vn 0.000000 0.000000 -1.000000
vn 0.000000 1.000000 0.000000
vn 0.000000 1.000000 0.000000
vn 0.000000 1.000000 0.000000
vn 0.000000 0.000000 1.000000
vn 0.000000 0.000000 1.000000
vn 0.000000 -1.000000 0.000000
vn 0.000000 -1.000000 0.000000
vn 0.000000 -1.000000 0.000000
vn 0.000000 0.000000 -1.000000
vn 0.000000 0.000000 -1.000000
vn 0.000000 1.000000 0.000000
vn 0.000000 1.000000 0.000000
vn 0.000000 1.000000 0.000000
vn 0.000000 0.000000 1.000000
vn 0.000000 0.000000 1.000000
vn 0.000000 -1.000000 0.000000
vn 0.000000 -1.000000 0.000000
vn 0.000000 -1.000000 0.000000
vn 0.000000 0.000000 -1.000000
vn 0.000000 0.000000 -1.000000
vn 0.000000 1.000000 0.000000
vn 0.000000 1.000000 0.000000
vn 0.000000 1.000000 0.000000
vn 0.000000 0.000000 1.000000
vn 0.000000 0.000000 1.000000
vn 0.000000 -1.000000 -0.000000
vn 0.000000 -1.000000 -0.000000
vn 0.000000 -1.000000 0.000000
vn 0.000000 0.000000 -1.000000
vn 0.000000 0.000000 -1.000000
vn 0.000000 1.000000 0.000000
vn 0.000000 1.000000 0.000000
vn 0.000000 1.000000 0.000000
vn 0.000000 0.000000 1.000000
vn 0.000000 0.000000 1.000000
vn 0.000000 -1.000000 0.000000
vn 0.000000 -1.000000 -0.000000
vn 0.000000 -1.000000 0.000000
vn 0.000000 0.000000 -1.000000
vn 0.000000 0.000000 -1.000000
vn 0.000000 1.000000 0.000000
vn 0.000000 1.000000 0.000000
vn 0.000000 1.000000 0.000000
vn 0.000000 0.000000 1.000000
vn 0.000000 0.000000 1.000000
vn 0.000000 -1.000000 0.000000
vn 0.000000 -1.000000 0.000000
vn 0.000000 -1.000000 0.000000
vn 0.000000 0.000000 -1.000000
vn 0.000000 0.000000 -1.000000
vn 0.000000 1.000000 0.000000
vn 0.000000 1.000000 0.000000
vn 0.000000 1.000000 0.000000
vn 0.000000 0.000000 1.000000
vn 0.000000 0.000000 1.000000
vn 0.000000 -1.000000 0.000000
vn 0.000000 -1.000000 0.000000
vn 0.000000 -1.000000 0.000000
vn 0.000000 0.000000 -1.000000
vn 0.000000 0.000000 -1.000000
vn 0.000000 1.000000 0.000000
vn 0.000000 1.000000 0.000000
vn 0.000000 1.000000 0.000000
vn 0.000000 0.000000 1.000000
vn 0.000000 0.000000 1.000000
vn 0.000000 -1.000000 0.000000
vn 0.000000 -1.000000 0.000000
vn 0.000000 -1.000000 0.000000
vn 0.000000 0.000000 -1.000000
vn 0.000000 0.000000 -1.000000
vn 0.000000 1.000000 0.000000
vn 0.000000 1.000000 0.000000
vn 0.000000 1.000000 0.000000
vn 0.000000 0.000000 1.000000
vn 0.000000 0.000000 1.000000
vn 0.000000 -1.000000 0.000000
vn 0.000000 -1.000000 0.000000
vn 0.000000 -1.000000 0.000000
vn 0.000000 0.000000 -1.000000
vn 0.000000 0.000000 -1.000000
vn 0.000000 1.000000 0.000000
vn 0.000000 1.000000 0.000000
vn 0.000000 1.000000 0.000000
vn 0.000000 0.000000 1.000000
vn 0.000000 0.000000 1.000000
vn 0.000000 -1.000000 0.000000
vn 0.000000 -1.000000 0.000000
vn 0.000000 -1.000000 0.000000
vn 0.000000 0.000000 -1.000000
vn 0.000000 0.000000 -1.000000
vn 0.000000 1.000000 0.000000
vn 0.000000 1.000000 0.000000
vn 0.000000 1.000000 0.000000
vn 0.000000 0.000000 1.000000
vn 0.000000 0.000000 1.000000
vn 0.000000 -1.000000 0.000000
vn 0.000000 -1.000000 0.000000
vn 0.000000 -1.000000 0.000000
vn 0.000000 0.000000 -1.000000
vn 0.000000 0.000000 -1.000000
vn 0.000000 1.000000 0.000000
vn 0.000000 1.000000 0.000000
vn 0.000000 1.000000 0.000000
vn 0.000000 0.000000 1.000000
vn 0.000000 0.000000 1.000000
vn 0.000000 -1.000000 0.000000
vn 0.000000 -1.000000 0.000000
vn 0.000000 -1.000000 0.000000
vn 0.000000 0.000000 -1.000000
vn 0.000000 0.000000 -1.000000
vn 0.000000 1.000000 0.000000
vn 0.000000 1.000000 0.000000
vn 0.000000 1.000000 0.000000
vn 0.000000 0.000000 1.000000
vn 0.000000 0.000000 1.000000
vn 0.000000 -1.000000 0.000000
vn -0.975126 0.156733 0.156729
vn -0.975126 0.156733 0.156729
vn -0.975126 0.156733 0.156729
vn -0.975126 0.156733 0.156729
vn 0.000000 0.903571 -0.428438
vn 0.000000 0.903571 -0.428437
vn 0.000000 0.903571 -0.428438
vn 0.000000 0.903571 -0.428437
vn 0.969213 -0.174106 -0.174107
vn 0.969213 -0.174106 -0.174107
vn 0.969213 -0.174106 -0.174107
vn 0.969213 -0.174106 -0.174107
vn 0.000000 -0.865213 0.501405
vn 0.000000 -0.865213 0.501405
vn 0.000000 -0.865213 0.501405
vn 0.000000 -0.865213 0.501405
vn -0.000000 0.903571 -0.428438
vn -0.000000 0.903571 -0.428438
vn -0.000000 0.903571 -0.428438
vn -0.000000 0.903571 -0.428438
vn 0.975127 0.156723 0.156735
vn 0.975127 0.156723 0.156735
vn 0.975127 0.156723 0.156735
vn 0.975127 0.156723 0.156735
vn -0.000000 -0.865213 0.501405
vn -0.000000 -0.865213 0.501405
vn -0.000000 -0.865213 0.501405
vn -0.000000 -0.865213 0.501405
vn -0.969213 -0.174106 -0.174106
vn -0.969213 -0.174106 -0.174106
vn -0.969213 -0.174106 -0.174106
vn -0.969213 -0.174106 -0.174106
s 1
g pCube1
usemtl initialShadingGroup
f 120/143/1 115/144/2 2/145/3 4/146/4
s 2
f 118/25/5 119/26/6 10/27/7 6/28/8
s 3
f 117/187/9 118/188/10 6/189/11 8/190/12
s 4
f 116/85/13 117/86/14 8/87/15 11/88/16
s 5
f 10/1/17 11/2/18 8/3/19 6/4/20
s 6
f 7/9/21 12/10/22 9/11/23 5/12/24
s 2
f 119/26/6 120/31/25 4/32/26 10/27/7
s 5
f 2/5/27 11/2/18 10/1/17 4/6/28
s off
f 121/227/29 122/228/30 123/229/31 124/230/32
s 6
f 9/11/23 12/10/22 1/13/33 3/14/34
s off
f 126/233/35 125/234/36 127/235/37 128/236/38
s 4
f 7/140/39 15/138/40 14/137/41 12/141/42
s 3
f 5/225/43 16/224/44 15/223/45 7/226/46
s 2
f 9/81/47 17/79/48 16/78/49 5/82/50
f 3/84/51 18/83/52 17/79/48 9/81/47
s 1
f 1/183/53 13/182/54 18/181/55 3/184/56
s 4
f 13/142/57 14/137/41 20/134/58 19/139/59
f 14/137/41 15/138/40 21/135/60 20/134/58
s 3
f 15/223/45 16/224/44 22/222/61 21/221/62
s 2
f 16/78/49 17/79/48 23/76/63 22/75/64
f 17/79/48 18/83/52 24/80/65 23/76/63
s 1
f 18/181/55 13/182/54 19/180/66 24/179/67
s 4
f 19/139/59 20/134/58 26/131/68 25/136/69
f 20/134/58 21/135/60 27/132/70 26/131/68
s 3
f 21/221/62 22/222/61 28/220/71 27/219/72
s 2
f 22/75/64 23/76/63 29/73/73 28/72/74
f 23/76/63 24/80/65 30/77/75 29/73/73
s 1
f 24/179/67 19/180/66 25/178/76 30/177/77
s 4
f 25/136/69 26/131/68 32/128/78 31/133/79
f 26/131/68 27/132/70 33/129/80 32/128/78
s 3
f 27/219/72 28/220/71 34/218/81 33/217/82
s 2
f 28/72/74 29/73/73 35/70/83 34/69/84
f 29/73/73 30/77/75 36/74/85 35/70/83
s 1
f 30/177/77 25/178/76 31/176/86 36/175/87
s 4
f 31/133/79 32/128/78 38/125/88 37/130/89
f 32/128/78 33/129/80 39/126/90 38/125/88
s 3
f 33/217/82 34/218/81 40/216/91 39/215/92
s 2
f 34/69/84 35/70/83 41/67/93 40/66/94
f 35/70/83 36/74/85 42/71/95 41/67/93
s 1
f 36/175/87 31/176/86 37/174/96 42/173/97
s 4
f 37/130/89 38/125/88 44/122/98 43/127/99
f 38/125/88 39/126/90 45/123/100 44/122/98
s 3
f 39/215/92 40/216/91 46/214/101 45/213/102
s 2
f 40/66/94 41/67/93 47/64/103 46/63/104
f 41/67/93 42/71/95 48/68/105 47/64/103
s 1
f 42/173/97 37/174/96 43/172/106 48/171/107
s 4
f 43/127/99 44/122/98 50/119/108 49/124/109
f 44/122/98 45/123/100 51/120/110 50/119/108
s 3
f 45/213/102 46/214/101 52/212/111 51/211/112
s 2
f 46/63/104 47/64/103 53/61/113 52/60/114
f 47/64/103 48/68/105 54/65/115 53/61/113
s 1
f 48/171/107 43/172/106 49/170/116 54/169/117
s 4
f 49/124/109 50/119/108 56/116/118 55/121/119
f 50/119/108 51/120/110 57/117/120 56/116/118
s 3
f 51/211/112 52/212/111 58/210/121 57/209/122
s 2
f 52/60/114 53/61/113 59/58/123 58/57/124
f 53/61/113 54/65/115 60/62/125 59/58/123
s 1
f 54/169/117 49/170/116 55/168/126 60/167/127
s 4
f 55/121/119 56/116/118 62/113/128 61/118/129
f 56/116/118 57/117/120 63/114/130 62/113/128
s 3
f 57/209/122 58/210/121 64/208/131 63/207/132
s 2
f 58/57/124 59/58/123 65/55/133 64/54/134
f 59/58/123 60/62/125 66/59/135 65/55/133
s 1
f 60/167/127 55/168/126 61/166/136 66/165/137
s 4
f 61/118/129 62/113/128 68/110/138 67/115/139
f 62/113/128 63/114/130 69/111/140 68/110/138
s 3
f 63/207/132 64/208/131 70/206/141 69/205/142
s 2
f 64/54/134 65/55/133 71/52/143 70/51/144
f 65/55/133 66/59/135 72/56/145 71/52/143
s 1
f 66/165/137 61/166/136 67/164/146 72/163/147
s 4
f 67/115/139 68/110/138 74/107/148 73/112/149
f 68/110/138 69/111/140 75/108/150 74/107/148
s 3
f 69/205/142 70/206/141 76/204/151 75/203/152
s 2
f 70/51/144 71/52/143 77/49/153 76/48/154
f 71/52/143 72/56/145 78/53/155 77/49/153
s 1
f 72/163/147 67/164/146 73/162/156 78/161/157
s 4
f 73/112/149 74/107/148 80/104/158 79/109/159
f 74/107/148 75/108/150 81/105/160 80/104/158
s 3
f 75/203/152 76/204/151 82/202/161 81/201/162
s 2
f 76/48/154 77/49/153 83/46/163 82/45/164
f 77/49/153 78/53/155 84/50/165 83/46/163
s 1
f 78/161/157 73/162/156 79/160/166 84/159/167
s 4
f 79/109/159 80/104/158 86/101/168 85/106/169
f 80/104/158 81/105/160 87/102/170 86/101/168
s 3
f 81/201/162 82/202/161 88/200/171 87/199/172
s 2
f 82/45/164 83/46/163 89/43/173 88/42/174
f 83/46/163 84/50/165 90/47/175 89/43/173
s 1
f 84/159/167 79/160/166 85/158/176 90/157/177
s 4
f 85/106/169 86/101/168 92/98/178 91/103/179
f 86/101/168 87/102/170 93/99/180 92/98/178
s 3
f 87/199/172 88/200/171 94/198/181 93/197/182
s 2
f 88/42/174 89/43/173 95/40/183 94/39/184
f 89/43/173 90/47/175 96/44/185 95/40/183
s 1
f 90/157/177 85/158/176 91/156/186 96/155/187
s 4
f 91/103/179 92/98/178 98/95/188 97/100/189
f 92/98/178 93/99/180 99/96/190 98/95/188
s 3
f 93/197/182 94/198/181 100/196/191 99/195/192
s 2
f 94/39/184 95/40/183 101/37/193 100/36/194
f 95/40/183 96/44/185 102/41/195 101/37/193
s 1
f 96/155/187 91/156/186 97/154/196 102/153/197
s 4
f 97/100/189 98/95/188 104/91/198 103/97/199
f 98/95/188 99/96/190 105/92/200 104/91/198
s 3
f 99/195/192 100/196/191 106/194/201 105/193/202
s 2
f 100/36/194 101/37/193 107/34/203 106/33/204
f 101/37/193 102/41/195 108/38/205 107/34/203
s 1
f 102/153/197 97/154/196 103/152/206 108/151/207
s 4
f 103/97/199 104/91/198 110/89/208 109/93/209
f 104/91/198 105/92/200 111/90/210 110/89/208
s 3
f 105/193/202 106/194/201 112/192/211 111/191/212
s 2
f 106/33/204 107/34/203 113/30/213 112/29/214
f 107/34/203 108/38/205 114/35/215 113/30/213
s 1
f 108/151/207 103/152/206 109/148/216 114/147/217
s 4
f 109/93/209 110/89/208 116/85/13 115/94/218
f 110/89/208 111/90/210 117/86/14 116/85/13
s 3
f 111/191/212 112/192/211 118/188/10 117/187/9
s 2
f 112/29/214 113/30/213 119/26/6 118/25/5
f 113/30/213 114/35/215 120/31/25 119/26/6
s 1
f 114/147/217 109/148/216 115/144/2 120/143/1
s off
f 115/17/219 116/18/220 122/19/221 121/20/222
f 116/231/223 11/232/224 123/229/225 122/228/226
f 11/2/227 2/5/228 124/7/229 123/8/230
f 2/145/231 115/144/232 121/149/233 124/150/234
f 12/237/235 14/238/236 125/234/237 126/233/238
f 14/21/239 13/22/240 127/23/241 125/24/242
f 13/182/243 1/183/244 128/185/245 127/186/246
f 1/13/247 12/10/248 126/15/249 128/16/250
