# This file uses centimeters as units for non-parametric coordinates.

mtllib short cab obj.mtl
g default
v 5.767796 7.733073 -1.681201
v 5.767796 7.733073 1.681201
v 5.767796 11.178268 1.681201
v 5.767796 11.178268 -1.681201
v 14.969094 11.178268 -1.681201
v 14.969094 7.733073 -1.681201
v 10.174088 7.733073 1.681201
v 10.174088 11.178268 1.681201
v 10.562802 11.178268 0.610155
v 10.174088 11.178268 0.610155
v 10.174088 7.733073 0.610155
v 10.562802 7.733073 0.610155
v 10.562802 7.733073 1.681201
v 10.562802 11.178268 1.681201
v 14.969094 7.733073 1.681201
v 14.969094 11.178268 1.681201
vt 0.514791 0.650606
vt 0.750431 0.650606
vt 0.750431 0.892047
vt 0.514791 0.892047
vt 0.475279 0.892047
vt 0.400220 0.892047
vt 0.400220 0.650606
vt 0.475279 0.650606
vt 0.319025 0.650606
vt 0.394084 0.650606
vt 0.394084 0.892047
vt 0.319025 0.892047
vt 0.077250 0.650606
vt 0.312890 0.650606
vt 0.312890 0.892047
vt 0.077250 0.892047
vt 0.249704 0.646614
vt 0.249704 0.001781
vt 0.485343 0.001781
vt 0.485343 0.310577
vt 0.410284 0.310577
vt 0.410284 0.337818
vt 0.485343 0.337818
vt 0.485343 0.646614
vt 0.493323 0.646614
vt 0.493323 0.337818
vt 0.568383 0.337818
vt 0.568383 0.310577
vt 0.493323 0.310577
vt 0.493323 0.001781
vt 0.728963 0.001781
vt 0.728963 0.646614
vt 0.001992 0.646614
vt 0.001992 0.001781
vt 0.243434 0.001781
vt 0.243434 0.646614
vt 0.736942 0.310577
vt 0.736942 0.001781
vt 0.978384 0.001781
vt 0.978384 0.310577
vt 0.508656 0.892047
vt 0.481415 0.892047
vt 0.481415 0.650606
vt 0.508656 0.650606
vt 0.756566 0.623364
vt 0.756566 0.314568
vt 0.998008 0.314568
vt 0.998008 0.623364
vn -1.000000 0.000000 0.000000
vn -1.000000 0.000000 0.000000
vn -1.000000 0.000000 0.000000
vn -1.000000 0.000000 0.000000
vn 0.000000 0.000000 -1.000000
vn 0.000000 0.000000 -1.000000
vn 0.000000 0.000000 -1.000000
vn 0.000000 0.000000 -1.000000
vn 0.000000 0.000000 1.000000
vn 0.000000 0.000000 1.000000
vn 0.000000 0.000000 1.000000
vn 0.000000 0.000000 1.000000
vn 0.000000 0.000000 1.000000
vn 0.000000 0.000000 1.000000
vn 0.000000 0.000000 1.000000
vn 0.000000 0.000000 1.000000
vn 1.000000 0.000000 0.000000
vn 1.000000 0.000000 0.000000
vn 1.000000 0.000000 0.000000
vn 1.000000 0.000000 0.000000
vn -1.000000 0.000000 0.000000
vn -1.000000 0.000000 0.000000
vn -1.000000 0.000000 0.000000
vn -1.000000 0.000000 0.000000
vn 0.000000 0.000000 1.000000
vn 0.000000 0.000000 1.000000
vn 0.000000 0.000000 1.000000
vn 0.000000 0.000000 1.000000
vn 1.000000 0.000000 0.000000
vn 1.000000 0.000000 0.000000
vn 1.000000 0.000000 0.000000
vn 1.000000 0.000000 0.000000
vn 0.000000 -1.000000 0.000000
vn 0.000000 -1.000000 0.000000
vn 0.000000 -1.000000 0.000000
vn 0.000000 -1.000000 0.000000
vn 0.000000 -1.000000 0.000000
vn 0.000000 -1.000000 0.000000
vn 0.000000 -1.000000 0.000000
vn 0.000000 -1.000000 0.000000
vn 0.000000 1.000000 0.000000
vn 0.000000 1.000000 0.000000
vn 0.000000 1.000000 0.000000
vn 0.000000 1.000000 0.000000
vn 0.000000 1.000000 0.000000
vn 0.000000 1.000000 0.000000
vn 0.000000 1.000000 0.000000
vn 0.000000 1.000000 0.000000
s off
g pCube4
usemtl initialShadingGroup
f 1/1/1 2/2/2 3/3/3 4/4/4
f 4/33/5 5/34/6 6/35/7 1/36/8
f 2/37/9 7/38/10 8/39/11 3/40/12
f 9/41/13 10/42/14 11/43/15 12/44/16
f 10/5/17 8/6/18 7/7/19 11/8/20
f 12/9/21 13/10/22 14/11/23 9/12/24
f 13/45/25 15/46/26 16/47/27 14/48/28
f 15/13/29 6/14/30 5/15/31 16/16/32
f 1/17/33 6/18/34 15/19/35 13/20/36 12/21/37 11/22/38 7/23/39 2/24/40
f 3/25/41 8/26/42 10/27/43 9/28/44 14/29/45 16/30/46 5/31/47 4/32/48
