# This file uses centimeters as units for non-parametric coordinates.

mtllib small chair.mtl
g default
v -23.616899 1.038881 -2.546153
v -16.551670 1.038881 -2.546153
v -23.616899 7.137938 -2.546153
v -16.551670 7.137938 -2.546153
v -23.616899 7.137938 -3.901708
v -16.551670 7.137938 -3.901708
v -23.616899 1.038881 -3.901708
v -16.551670 1.038881 -3.901708
v -22.330568 8.554114 -2.845663
v -17.838001 8.554114 -2.845663
v -17.838001 8.554114 -3.602198
v -22.330568 8.554114 -3.602198
v -23.584641 1.070021 2.916036
v -22.584641 1.070021 2.916036
v -23.584641 5.571524 2.916036
v -22.584641 5.571524 2.916036
v -23.584641 5.571524 -3.255885
v -22.584641 5.571524 -3.255885
v -23.584641 1.070021 -3.255885
v -22.584641 1.070021 -3.255885
v -23.178898 6.148515 2.916036
v -22.990383 6.148515 2.916036
v -22.990383 6.148515 -3.255885
v -23.178898 6.148515 -3.255885
v -16.644535 1.070021 2.916036
v -17.644535 1.070021 2.916036
v -16.644535 5.571524 2.916036
v -17.644535 5.571524 2.916036
v -16.644535 5.571524 -3.255885
v -17.644535 5.571524 -3.255885
v -16.644535 1.070021 -3.255885
v -17.644535 1.070021 -3.255885
v -17.050278 6.148515 2.916036
v -17.238792 6.148515 2.916036
v -17.238792 6.148515 -3.255885
v -17.050278 6.148515 -3.255885
v -23.185425 1.252892 2.766821
v -17.266726 1.252892 2.766821
v -23.185425 2.953654 2.766821
v -17.266726 2.953654 2.766821
v -23.185425 2.953654 -2.766821
v -17.266726 2.953654 -2.766821
v -23.185425 1.252892 -2.766821
v -17.266726 1.252892 -2.766821
v -23.138031 3.012450 2.426852
v -17.469307 3.012450 2.426852
v -23.138031 4.012450 2.426852
v -17.469307 4.012450 2.426852
v -23.138031 4.012450 -2.734321
v -17.469307 4.012450 -2.734321
v -23.138031 3.012450 -2.734321
v -17.469307 3.012450 -2.734321
vt 0.559587 0.001907
vt 0.611829 0.001907
vt 0.611829 0.236959
vt 0.559587 0.236959
vt 0.600286 0.291537
vt 0.571130 0.291537
vt 0.618056 0.001907
vt 0.670298 0.001907
vt 0.670298 0.236959
vt 0.618056 0.236959
vt 0.658755 0.291537
vt 0.629599 0.291537
vt 0.793462 0.239767
vt 0.793462 0.001907
vt 0.966945 0.001907
vt 0.966945 0.239767
vt 0.989182 0.001907
vt 0.989182 0.239767
vt 0.802288 0.481618
vt 0.802288 0.243758
vt 0.975771 0.243758
vt 0.975771 0.481618
vt 0.998008 0.243758
vt 0.998008 0.481618
vt 0.542358 0.295528
vt 0.715841 0.295528
vt 0.715841 0.533388
vt 0.542358 0.533388
vt 0.738078 0.295528
vt 0.738078 0.533388
vt 0.340503 0.295528
vt 0.513986 0.295528
vt 0.513986 0.533388
vt 0.340503 0.533388
vt 0.536223 0.295528
vt 0.536223 0.533388
vt 0.797360 0.698870
vt 0.797360 0.485609
vt 0.862905 0.485609
vt 0.862905 0.698870
vt 0.869471 0.698870
vt 0.869471 0.485609
vt 0.935016 0.485609
vt 0.935016 0.698870
vt 0.941582 0.684516
vt 0.941582 0.485609
vt 0.980121 0.485609
vt 0.980121 0.684516
vt 0.959469 0.887414
vt 0.959469 0.688507
vt 0.998008 0.688507
vt 0.998008 0.887414
vt 0.745481 0.932977
vt 0.745481 0.759838
vt 0.774637 0.759838
vt 0.774637 0.932977
vt 0.676524 0.274194
vt 0.676524 0.001907
vt 0.728766 0.001907
vt 0.728766 0.274194
vt 0.734993 0.001907
vt 0.742258 0.001907
vt 0.742258 0.239767
vt 0.734993 0.239767
vt 0.748636 0.001907
vt 0.787175 0.001907
vt 0.787175 0.239767
vt 0.748636 0.239767
vt 0.796153 0.243758
vt 0.796153 0.481618
vt 0.788887 0.481618
vt 0.788887 0.243758
vt 0.782752 0.243758
vt 0.782752 0.481618
vt 0.744213 0.481618
vt 0.744213 0.243758
vt 0.049425 0.523629
vt 0.049425 0.295528
vt 0.262686 0.295528
vt 0.262686 0.523629
vt 0.074298 0.755721
vt 0.074298 0.527620
vt 0.287559 0.527620
vt 0.287559 0.755721
vt 0.339356 0.755846
vt 0.339356 0.537379
vt 0.538262 0.537379
vt 0.538262 0.755846
vt 0.590770 0.755846
vt 0.590770 0.537379
vt 0.789677 0.537379
vt 0.789677 0.755846
vt 0.001992 0.001907
vt 0.274279 0.001907
vt 0.274279 0.236959
vt 0.001992 0.236959
vt 0.224705 0.291537
vt 0.051566 0.291537
vt 0.280887 0.056485
vt 0.553174 0.056485
vt 0.553174 0.291537
vt 0.280887 0.291537
vt 0.330461 0.001907
vt 0.503600 0.001907
vt 0.914795 0.702862
vt 0.953334 0.702862
vt 0.953334 0.876345
vt 0.914795 0.876345
vt 0.937697 0.898582
vt 0.930432 0.898582
vt 0.870121 0.725098
vt 0.908660 0.725098
vt 0.908660 0.898582
vt 0.870121 0.898582
vt 0.885758 0.702862
vt 0.893023 0.702862
vt 0.863985 0.702862
vt 0.863985 0.876345
vt 0.825446 0.876345
vt 0.825446 0.702862
vt 0.848349 0.898582
vt 0.841083 0.898582
vt 0.819311 0.782074
vt 0.819311 0.955558
vt 0.780772 0.955558
vt 0.780772 0.782074
vt 0.796409 0.759838
vt 0.803674 0.759838
vt 0.268822 0.523629
vt 0.268822 0.295528
vt 0.334367 0.295528
vt 0.334367 0.523629
vt 0.001992 0.755721
vt 0.001992 0.527620
vt 0.067538 0.527620
vt 0.067538 0.755721
vt 0.294530 0.746087
vt 0.294530 0.527620
vt 0.333069 0.527620
vt 0.333069 0.746087
vt 0.545945 0.755846
vt 0.545945 0.537379
vt 0.584484 0.537379
vt 0.584484 0.755846
vn 0.000000 0.000000 1.000000
vn 0.000000 0.000000 1.000000
vn 0.000000 0.000000 1.000000
vn 0.000000 0.000000 1.000000
vn 0.000000 1.000000 0.000000
vn 0.000000 1.000000 0.000000
vn 0.000000 1.000000 0.000000
vn 0.000000 1.000000 0.000000
vn 0.000000 0.000000 -1.000000
vn 0.000000 0.000000 -1.000000
vn 0.000000 0.000000 -1.000000
vn 0.000000 0.000000 -1.000000
vn 0.000000 -1.000000 0.000000
vn 0.000000 -1.000000 0.000000
vn 0.000000 -1.000000 0.000000
vn 0.000000 -1.000000 0.000000
vn 1.000000 0.000000 0.000000
vn 1.000000 0.000000 0.000000
vn 1.000000 0.000000 0.000000
vn 1.000000 0.000000 0.000000
vn -1.000000 0.000000 0.000000
vn -1.000000 0.000000 0.000000
vn -1.000000 0.000000 0.000000
vn -1.000000 0.000000 0.000000
vn 0.000000 0.206915 0.978359
vn 0.000000 0.206915 0.978359
vn 0.000000 0.206915 0.978359
vn 0.000000 0.206915 0.978359
vn 0.740227 0.672357 0.000000
vn 0.740227 0.672357 0.000000
vn 0.740227 0.672357 0.000000
vn 0.740227 0.672357 0.000000
vn 0.000000 0.206915 -0.978359
vn 0.000000 0.206915 -0.978359
vn 0.000000 0.206915 -0.978359
vn 0.000000 0.206915 -0.978359
vn -0.740227 0.672357 0.000000
vn -0.740227 0.672357 0.000000
vn -0.740227 0.672357 0.000000
vn -0.740227 0.672357 0.000000
vn 0.000000 0.000000 1.000000
vn 0.000000 0.000000 1.000000
vn 0.000000 0.000000 1.000000
vn 0.000000 0.000000 1.000000
vn 0.000000 1.000000 0.000000
vn 0.000000 1.000000 0.000000
vn 0.000000 1.000000 0.000000
vn 0.000000 1.000000 0.000000
vn 0.000000 0.000000 -1.000000
vn 0.000000 0.000000 -1.000000
vn 0.000000 0.000000 -1.000000
vn 0.000000 0.000000 -1.000000
vn 0.000000 -1.000000 0.000000
vn 0.000000 -1.000000 0.000000
vn 0.000000 -1.000000 0.000000
vn 0.000000 -1.000000 0.000000
vn 1.000000 0.000000 0.000000
vn 1.000000 0.000000 0.000000
vn 1.000000 0.000000 0.000000
vn 1.000000 0.000000 0.000000
vn -1.000000 0.000000 0.000000
vn -1.000000 0.000000 0.000000
vn -1.000000 0.000000 0.000000
vn -1.000000 0.000000 0.000000
vn 0.000000 0.000000 1.000000
vn 0.000000 0.000000 1.000000
vn 0.000000 0.000000 1.000000
vn 0.000000 0.000000 1.000000
vn 0.817999 0.575220 0.000000
vn 0.817999 0.575220 0.000000
vn 0.817999 0.575220 0.000000
vn 0.817999 0.575220 0.000000
vn 0.000000 0.000000 -1.000000
vn 0.000000 0.000000 -1.000000
vn 0.000000 0.000000 -1.000000
vn 0.000000 0.000000 -1.000000
vn -0.817999 0.575220 0.000000
vn -0.817999 0.575220 0.000000
vn -0.817999 0.575220 0.000000
vn -0.817999 0.575220 0.000000
vn 0.000000 0.000000 1.000000
vn 0.000000 0.000000 1.000000
vn 0.000000 0.000000 1.000000
vn 0.000000 0.000000 1.000000
vn 0.000000 1.000000 0.000000
vn 0.000000 1.000000 0.000000
vn 0.000000 1.000000 0.000000
vn 0.000000 1.000000 0.000000
vn 0.000000 0.000000 -1.000000
vn 0.000000 0.000000 -1.000000
vn 0.000000 0.000000 -1.000000
vn 0.000000 0.000000 -1.000000
vn 0.000000 -1.000000 0.000000
vn 0.000000 -1.000000 0.000000
vn 0.000000 -1.000000 0.000000
vn 0.000000 -1.000000 0.000000
vn -1.000000 0.000000 0.000000
vn -1.000000 0.000000 0.000000
vn -1.000000 0.000000 0.000000
vn -1.000000 0.000000 0.000000
vn 1.000000 0.000000 0.000000
vn 1.000000 0.000000 0.000000
vn 1.000000 0.000000 0.000000
vn 1.000000 0.000000 0.000000
vn 0.000000 0.000000 1.000000
vn 0.000000 0.000000 1.000000
vn 0.000000 0.000000 1.000000
vn 0.000000 0.000000 1.000000
vn -0.817999 0.575220 0.000000
vn -0.817999 0.575220 0.000000
vn -0.817999 0.575220 0.000000
vn -0.817999 0.575220 0.000000
vn 0.000000 0.000000 -1.000000
vn 0.000000 0.000000 -1.000000
vn 0.000000 0.000000 -1.000000
vn 0.000000 0.000000 -1.000000
vn 0.817999 0.575220 0.000000
vn 0.817999 0.575220 0.000000
vn 0.817999 0.575220 0.000000
vn 0.817999 0.575220 0.000000
vn 0.000000 0.000000 1.000000
vn 0.000000 0.000000 1.000000
vn 0.000000 0.000000 1.000000
vn 0.000000 0.000000 1.000000
vn 0.000000 1.000000 0.000000
vn 0.000000 1.000000 0.000000
vn 0.000000 1.000000 0.000000
vn 0.000000 1.000000 0.000000
vn 0.000000 0.000000 -1.000000
vn 0.000000 0.000000 -1.000000
vn 0.000000 0.000000 -1.000000
vn 0.000000 0.000000 -1.000000
vn 0.000000 -1.000000 0.000000
vn 0.000000 -1.000000 0.000000
vn 0.000000 -1.000000 0.000000
vn 0.000000 -1.000000 0.000000
vn 1.000000 0.000000 0.000000
vn 1.000000 0.000000 0.000000
vn 1.000000 0.000000 0.000000
vn 1.000000 0.000000 0.000000
vn -1.000000 0.000000 0.000000
vn -1.000000 0.000000 0.000000
vn -1.000000 0.000000 0.000000
vn -1.000000 0.000000 0.000000
vn 0.000000 0.000000 1.000000
vn 0.000000 0.000000 1.000000
vn 0.000000 0.000000 1.000000
vn 0.000000 0.000000 1.000000
vn 0.000000 1.000000 0.000000
vn 0.000000 1.000000 0.000000
vn 0.000000 1.000000 0.000000
vn 0.000000 1.000000 0.000000
vn 0.000000 0.000000 -1.000000
vn 0.000000 0.000000 -1.000000
vn 0.000000 0.000000 -1.000000
vn 0.000000 0.000000 -1.000000
vn 0.000000 -1.000000 0.000000
vn 0.000000 -1.000000 0.000000
vn 0.000000 -1.000000 0.000000
vn 0.000000 -1.000000 0.000000
vn 1.000000 0.000000 0.000000
vn 1.000000 0.000000 0.000000
vn 1.000000 0.000000 0.000000
vn 1.000000 0.000000 0.000000
vn -1.000000 0.000000 0.000000
vn -1.000000 0.000000 0.000000
vn -1.000000 0.000000 0.000000
vn -1.000000 0.000000 0.000000
s off
g pCube26
usemtl lambert7SG
f 1/93/1 2/94/2 4/95/3 3/96/4
f 9/53/5 10/54/6 11/55/7 12/56/8
f 5/99/9 6/100/10 8/101/11 7/102/12
f 7/57/13 8/58/14 2/59/15 1/60/16
f 2/1/17 8/2/18 6/3/19 4/4/20
f 7/7/21 1/8/22 3/9/23 5/10/24
f 3/96/25 4/95/26 10/97/27 9/98/28
f 4/4/29 6/3/30 11/5/31 10/6/32
f 6/100/33 5/99/34 12/103/35 11/104/36
f 5/10/37 3/9/38 9/11/39 12/12/40
f 13/105/41 14/106/42 16/107/43 15/108/44
f 21/61/45 22/62/46 23/63/47 24/64/48
f 17/111/49 18/112/50 20/113/51 19/114/52
f 19/65/53 20/66/54 14/67/55 13/68/56
f 14/13/57 20/14/58 18/15/59 16/16/60
f 19/19/61 13/20/62 15/21/63 17/22/64
f 15/108/65 16/107/66 22/109/67 21/110/68
f 16/16/69 18/15/70 23/17/71 22/18/72
f 18/112/73 17/111/74 24/115/75 23/116/76
f 17/22/77 15/21/78 21/23/79 24/24/80
f 25/117/81 27/118/82 28/119/83 26/120/84
f 33/69/85 36/70/86 35/71/87 34/72/88
f 29/123/89 31/124/90 32/125/91 30/126/92
f 31/73/93 25/74/94 26/75/95 32/76/96
f 26/25/97 28/26/98 30/27/99 32/28/100
f 31/31/101 29/32/102 27/33/103 25/34/104
f 27/118/105 33/121/106 34/122/107 28/119/108
f 28/26/109 34/29/110 35/30/111 30/27/112
f 30/126/113 35/127/114 36/128/115 29/123/116
f 29/32/117 36/35/118 33/36/119 27/33/120
f 37/129/121 38/130/122 40/131/123 39/132/124
f 39/77/125 40/78/126 42/79/127 41/80/128
f 41/133/129 42/134/130 44/135/131 43/136/132
f 43/81/133 44/82/134 38/83/135 37/84/136
f 38/37/137 44/38/138 42/39/139 40/40/140
f 43/41/141 37/42/142 39/43/143 41/44/144
f 45/137/145 46/138/146 48/139/147 47/140/148
f 47/85/149 48/86/150 50/87/151 49/88/152
f 49/141/153 50/142/154 52/143/155 51/144/156
f 51/89/157 52/90/158 46/91/159 45/92/160
f 46/45/161 52/46/162 50/47/163 48/48/164
f 51/49/165 45/50/166 47/51/167 49/52/168
