# This file uses centimeters as units for non-parametric coordinates.

mtllib stereo obj.mtl
g default
v -2.760256 0.210808 -2.257570
v 2.760256 0.210808 -2.257570
v 2.760256 0.210808 2.257570
v -2.760256 0.210808 2.257570
v -0.923024 1.742419 1.248758
v 0.000000 3.012852 1.248758
v -1.270433 2.089829 1.248758
v -1.493484 2.527590 1.248758
v -0.485262 1.519369 1.248758
v -1.570341 3.012852 1.248758
v -0.000000 1.442511 1.248758
v -1.493484 3.498114 1.248758
v 0.485262 1.519369 1.248758
v -2.219237 1.091193 -1.815079
v -2.219237 1.091193 1.815079
v -2.197939 7.212416 1.797660
v -2.197939 7.212416 -1.797660
v -1.270433 3.935876 1.248758
v 0.923023 1.742419 1.248758
v 2.197939 7.212416 -1.797660
v 2.219237 1.091193 -1.815079
v -1.270433 2.089829 1.812237
v -0.923024 1.742419 1.813226
v -0.923024 4.283285 1.248758
v 1.270433 2.089829 1.248758
v -1.493484 2.527590 1.810991
v -0.485262 1.519369 1.813860
v 2.760256 0.567683 2.257570
v -2.760256 0.567683 2.257570
v 1.493483 2.527590 1.248758
v -0.485262 4.506336 1.248758
v -1.570341 3.012852 1.809610
v -0.000000 1.442511 1.814079
v 2.219237 1.091193 1.815079
v 1.570341 3.012852 1.248758
v 0.000000 4.583194 1.248758
v 1.493484 3.498115 1.248758
v 0.485262 4.506336 1.248758
v 2.760256 0.567683 -2.257570
v 0.923024 4.283286 1.248758
v 1.270434 3.935876 1.248758
v -1.493484 3.498114 1.808229
v 0.485262 1.519369 1.813860
v -0.615926 5.216624 1.248758
v 0.000000 6.064374 1.248758
v -0.847750 5.448448 1.248758
v -0.323812 5.067784 1.248758
v -0.996590 5.740562 1.248758
v -1.047877 6.064374 1.248758
v -0.000000 5.016498 1.248758
v -0.996590 6.388186 1.248758
v 0.323812 5.067784 1.248758
v -1.270433 3.935876 1.806984
v 0.923023 1.742419 1.813226
v -0.847750 6.680301 1.248758
v 0.615926 5.216624 1.248758
v -0.615927 6.912124 1.248758
v 0.847750 5.448448 1.248758
v 0.996590 5.740562 1.248758
v -0.323812 7.060964 1.248758
v 1.047876 6.064374 1.248758
v 0.000000 7.112251 1.248758
v -0.923024 4.283285 1.805995
v 1.270433 2.089829 1.812237
v 0.323812 7.060964 1.248758
v 0.996590 6.388186 1.248758
v 0.615927 6.912124 1.248758
v 0.847750 6.680301 1.248758
v -0.485262 4.506336 1.805360
v 1.493483 2.527590 1.810991
v -1.706496 7.703883 1.797660
v -1.706496 7.703883 -1.797660
v 1.706496 7.703883 -1.797660
v 0.000000 4.583194 1.805142
v 1.570341 3.012852 1.809610
v -0.847750 5.448448 1.802679
v -0.615926 5.216624 1.803339
v -0.996590 5.740562 1.801848
v -0.323812 5.067784 1.803763
v 0.485262 4.506336 1.805360
v 1.493484 3.498115 1.808229
v 2.197939 7.212416 1.797660
v -1.047877 6.064374 1.800927
v -0.000000 5.016498 1.803909
v 0.923024 4.283286 1.805995
v 1.270434 3.935876 1.806984
v -0.996590 6.388186 1.800005
v 0.323812 5.067784 1.803763
v -0.847750 6.680301 1.799174
v 0.615926 5.216624 1.803339
v -0.615927 6.912124 1.798514
v 0.847750 5.448448 1.802679
v 1.706496 7.703883 1.797660
v -0.323812 7.060964 1.798091
v 0.996590 5.740562 1.801848
v 0.000000 7.112251 1.797945
v 1.047876 6.064374 1.800927
v 0.323812 7.060964 1.798091
v 0.996590 6.388186 1.800005
v 0.615927 6.912124 1.798514
v 0.847750 6.680301 1.799174
v -2.760256 0.567683 -2.257570
vt 0.029279 0.056147
vt 0.253140 0.056147
vt 0.252066 0.433624
vt 0.030353 0.433624
vt 0.001992 0.023864
vt 0.280427 0.023864
vt 0.252066 0.463931
vt 0.030353 0.463931
vt 0.001992 0.001856
vt 0.280427 0.001856
vt 0.002130 0.714010
vt 0.002053 0.687014
vt 0.036801 0.687014
vt 0.036801 0.714010
vt 0.001992 0.665591
vt 0.036801 0.665591
vt 0.002215 0.743934
vt 0.036801 0.743934
vt 0.002300 0.773859
vt 0.036801 0.773859
vt 0.002377 0.800854
vt 0.036801 0.800854
vt 0.002438 0.822278
vt 0.036801 0.822278
vt 0.998008 0.489930
vt 0.719573 0.489930
vt 0.719573 0.467923
vt 0.998008 0.467923
vt 0.970721 0.522214
vt 0.746860 0.522214
vt 0.969647 0.899691
vt 0.747935 0.899691
vt 0.747935 0.929998
vt 0.969647 0.929998
vt 0.077863 0.687014
vt 0.077786 0.714010
vt 0.043115 0.714010
vt 0.043115 0.687014
vt 0.077701 0.743934
vt 0.043115 0.743934
vt 0.077924 0.665591
vt 0.043115 0.665591
vt 0.077616 0.773859
vt 0.043115 0.773859
vt 0.077539 0.800855
vt 0.043115 0.800855
vt 0.077478 0.822278
vt 0.043115 0.822278
vt 0.306315 0.725937
vt 0.306264 0.707923
vt 0.340423 0.707923
vt 0.340423 0.725937
vt 0.306224 0.693627
vt 0.340423 0.693627
vt 0.306372 0.745905
vt 0.340423 0.745905
vt 0.306429 0.765873
vt 0.340423 0.765873
vt 0.306480 0.783887
vt 0.340423 0.783887
vt 0.306521 0.798183
vt 0.340423 0.798183
vt 0.381310 0.707923
vt 0.381259 0.725936
vt 0.347152 0.725936
vt 0.347152 0.707923
vt 0.381202 0.745905
vt 0.347152 0.745905
vt 0.381351 0.693627
vt 0.347152 0.693627
vt 0.381145 0.765873
vt 0.347152 0.765873
vt 0.381094 0.783887
vt 0.347152 0.783887
vt 0.381053 0.798183
vt 0.347152 0.798183
vt 0.435003 0.808356
vt 0.435003 0.467923
vt 0.713438 0.467923
vt 0.713438 0.808356
vt 0.222471 0.807467
vt 0.222432 0.780471
vt 0.257280 0.780471
vt 0.257280 0.807467
vt 0.222419 0.750547
vt 0.257280 0.750547
vt 0.222432 0.720622
vt 0.257280 0.720622
vt 0.222471 0.693627
vt 0.257280 0.693627
vt 0.299620 0.780471
vt 0.299659 0.807467
vt 0.265296 0.807467
vt 0.265296 0.780471
vt 0.299606 0.750547
vt 0.265296 0.750547
vt 0.299620 0.720622
vt 0.265296 0.720622
vt 0.299659 0.693627
vt 0.265296 0.693627
vt 0.388115 0.769591
vt 0.388089 0.751577
vt 0.422314 0.751577
vt 0.422314 0.769591
vt 0.388080 0.731609
vt 0.422314 0.731609
vt 0.388089 0.711641
vt 0.422314 0.711641
vt 0.388115 0.693627
vt 0.422314 0.693627
vt 0.218399 0.689635
vt 0.218399 0.467923
vt 0.428868 0.467923
vt 0.428868 0.689635
vt 0.462883 0.870298
vt 0.462909 0.888312
vt 0.429008 0.888312
vt 0.429008 0.870298
vt 0.462874 0.850330
vt 0.429008 0.850330
vt 0.462883 0.830361
vt 0.429008 0.830361
vt 0.462909 0.812347
vt 0.429008 0.812347
vt 0.037082 0.621681
vt 0.115425 0.564761
vt 0.058505 0.643105
vt 0.023327 0.594686
vt 0.085501 0.656860
vt 0.018587 0.564761
vt 0.115425 0.661599
vt 0.023327 0.534836
vt 0.145350 0.656860
vt 0.037082 0.507841
vt 0.172346 0.643105
vt 0.058505 0.486417
vt 0.193769 0.621681
vt 0.085501 0.472663
vt 0.207524 0.594686
vt 0.115425 0.467923
vt 0.212264 0.564761
vt 0.145350 0.472662
vt 0.207524 0.534836
vt 0.172346 0.486417
vt 0.193769 0.507841
vt 0.321410 0.032164
vt 0.592491 0.032164
vt 0.593804 0.409641
vt 0.320097 0.409641
vt 0.351716 0.001856
vt 0.562185 0.001856
vt 0.627167 0.441924
vt 0.286734 0.441924
vt 0.627167 0.463931
vt 0.286734 0.463931
vt 0.974081 0.023864
vt 0.633648 0.023864
vt 0.633648 0.001856
vt 0.974081 0.001856
vt 0.940718 0.056147
vt 0.667011 0.056147
vt 0.803864 0.427447
vt 0.823833 0.424285
vt 0.841847 0.415106
vt 0.856142 0.400810
vt 0.865321 0.382796
vt 0.868484 0.362828
vt 0.865321 0.342859
vt 0.856142 0.324846
vt 0.841847 0.310550
vt 0.823833 0.301371
vt 0.803864 0.298209
vt 0.803864 0.271488
vt 0.833789 0.266748
vt 0.860784 0.252994
vt 0.882208 0.231570
vt 0.895963 0.204574
vt 0.900702 0.174650
vt 0.895963 0.144725
vt 0.882208 0.117730
vt 0.860784 0.096306
vt 0.833789 0.082551
vt 0.803864 0.077812
vt 0.939404 0.433624
vt 0.668324 0.433624
vt 0.773940 0.082551
vt 0.746944 0.096306
vt 0.725520 0.117730
vt 0.711766 0.144725
vt 0.707026 0.174650
vt 0.711766 0.204574
vt 0.725520 0.231570
vt 0.746944 0.252994
vt 0.773940 0.266748
vt 0.783896 0.301371
vt 0.765882 0.310550
vt 0.751586 0.324846
vt 0.742408 0.342859
vt 0.739245 0.362828
vt 0.742408 0.382796
vt 0.751586 0.400810
vt 0.765882 0.415106
vt 0.783896 0.424285
vt 0.909099 0.463931
vt 0.698630 0.463931
vt 0.112629 0.705968
vt 0.150611 0.758246
vt 0.098333 0.720264
vt 0.130643 0.696789
vt 0.089155 0.738278
vt 0.150611 0.693627
vt 0.085992 0.758246
vt 0.170580 0.696789
vt 0.089155 0.778215
vt 0.188594 0.705968
vt 0.098333 0.796228
vt 0.202889 0.720264
vt 0.112629 0.810524
vt 0.212068 0.738278
vt 0.130643 0.819703
vt 0.215231 0.758246
vt 0.150611 0.822865
vt 0.212068 0.778215
vt 0.170580 0.819703
vt 0.202889 0.796228
vt 0.188594 0.810524
vn 0.000000 -1.000000 0.000000
vn 0.000000 -1.000000 0.000000
vn 0.000000 -1.000000 0.000000
vn 0.000000 -1.000000 0.000000
vn 0.000000 0.000000 1.000000
vn 0.000000 0.000000 1.000000
vn -0.000000 0.000000 1.000000
vn -0.000000 0.000000 1.000000
vn -0.000000 0.000000 1.000000
vn 0.000000 0.000000 1.000000
vn -0.000000 0.000000 1.000000
vn 0.000000 0.000000 1.000000
vn -0.000000 0.000000 1.000000
vn -0.999994 0.003479 0.000000
vn -0.999994 0.003479 0.000000
vn -0.999994 0.003479 0.000000
vn -0.999994 0.003479 0.000000
vn 0.000000 0.000000 1.000000
vn -0.000000 0.000000 1.000000
vn 0.000000 0.002846 -0.999996
vn 0.000000 0.002846 -0.999996
vn 0.000000 0.002846 -0.999996
vn 0.000000 0.002846 -0.999996
vn 0.808790 0.588098 0.000000
vn 0.587558 0.809182 0.000000
vn 0.587693 0.809084 0.000000
vn 0.808925 0.587912 0.000000
vn 0.000000 0.000000 1.000000
vn 0.000000 0.000000 1.000000
vn 0.950916 0.309449 0.000000
vn 0.950999 0.309193 0.000000
vn 0.308877 0.951102 0.000000
vn 0.308960 0.951075 0.000000
vn 0.000000 0.000000 1.000000
vn 0.000000 0.000000 1.000000
vn 0.000000 0.000000 1.000000
vn 0.000000 0.000000 1.000000
vn 0.000000 0.000000 1.000000
vn -0.000000 0.000000 1.000000
vn 1.000000 0.000478 0.000000
vn 1.000000 0.000195 0.000000
vn -0.000000 1.000000 0.000000
vn -0.000000 1.000000 0.000000
vn 0.000000 0.645535 0.763731
vn 0.000000 0.645535 0.763731
vn 0.000000 0.645535 0.763731
vn 0.000000 0.645535 0.763731
vn 0.000000 0.000000 1.000000
vn 0.000000 0.000000 1.000000
vn 0.000000 0.000000 1.000000
vn 0.000000 0.000000 1.000000
vn 1.000000 0.000000 0.000000
vn 1.000000 0.000000 0.000000
vn 1.000000 0.000000 0.000000
vn 1.000000 0.000000 0.000000
vn -0.000000 0.000000 1.000000
vn -0.000000 0.000000 1.000000
vn 0.951197 -0.308584 0.000000
vn 0.951114 -0.308840 0.000000
vn -0.308877 0.951102 0.000000
vn -0.308960 0.951075 0.000000
vn 0.695382 0.718640 0.000000
vn 0.695382 0.718640 0.000000
vn 0.695382 0.718640 0.000000
vn 0.695382 0.718640 0.000000
vn -0.000000 0.000000 1.000000
vn 0.000000 0.000000 1.000000
vn 0.000000 0.000000 1.000000
vn -0.000000 0.000000 1.000000
vn 0.000000 0.000000 1.000000
vn 0.000000 0.000000 1.000000
vn -0.000000 0.000000 1.000000
vn 0.000000 0.000000 1.000000
vn 0.000000 0.000000 1.000000
vn 0.809245 -0.587471 0.000000
vn 0.809110 -0.587657 0.000000
vn -0.587558 0.809182 0.000000
vn -0.587693 0.809084 0.000000
vn 0.000000 0.000000 1.000000
vn 0.000000 0.000000 1.000000
vn -0.000000 0.000000 1.000000
vn -0.000000 0.000000 1.000000
vn -0.000000 0.000000 1.000000
vn -0.000000 0.000000 1.000000
vn 0.000000 0.000000 1.000000
vn 0.000000 0.000000 1.000000
vn 0.588014 -0.808851 0.000000
vn 0.587879 -0.808949 0.000000
vn -0.808790 0.588098 0.000000
vn -0.808925 0.587912 0.000000
vn 0.000000 0.000000 1.000000
vn -0.000000 0.000000 1.000000
vn 0.000000 0.000000 1.000000
vn -0.000000 0.000000 1.000000
vn 0.309158 -0.951011 0.000000
vn 0.309075 -0.951038 0.000000
vn -0.950916 0.309449 0.000000
vn -0.950999 0.309193 0.000000
vn -0.707124 0.707089 0.000000
vn -0.707124 0.707089 0.000000
vn -0.707124 0.707089 0.000000
vn -0.707124 0.707089 0.000000
vn 0.000000 0.000000 -1.000000
vn 0.000000 0.000000 -1.000000
vn 0.000000 0.000000 -1.000000
vn 0.000000 0.000000 -1.000000
vn 0.000000 -1.000000 0.000000
vn 0.000000 -1.000000 0.000000
vn -1.000000 0.000479 0.000000
vn -1.000000 0.000196 0.000000
vn 0.808820 0.588057 0.000000
vn 0.587588 0.809161 0.000000
vn 0.587722 0.809063 0.000000
vn 0.808954 0.587871 0.000000
vn 0.950934 0.309393 0.000000
vn 0.951018 0.309136 0.000000
vn 0.308894 0.951096 0.000000
vn 0.308978 0.951069 0.000000
vn -0.309157 -0.951011 0.000000
vn -0.309074 -0.951038 0.000000
vn -0.951198 -0.308583 0.000000
vn -0.951114 -0.308839 0.000000
vn 0.999994 0.003479 0.000000
vn 0.999994 0.003479 0.000000
vn 0.999994 0.003479 0.000000
vn 0.999994 0.003479 0.000000
vn 1.000000 0.000416 0.000000
vn 1.000000 0.000132 0.000000
vn 0.000000 1.000000 0.000000
vn 0.000000 1.000000 0.000000
vn -0.588013 -0.808851 0.000000
vn -0.587878 -0.808949 0.000000
vn -0.809245 -0.587472 0.000000
vn -0.809110 -0.587657 0.000000
vn 0.951179 -0.308641 0.000000
vn 0.951096 -0.308897 0.000000
vn -0.308895 0.951096 0.000000
vn -0.308978 0.951069 0.000000
vn 0.809215 -0.587513 0.000000
vn 0.809080 -0.587698 0.000000
vn -0.587588 0.809161 0.000000
vn -0.587723 0.809063 0.000000
vn 0.587983 -0.808873 0.000000
vn 0.587848 -0.808971 0.000000
vn -0.808819 0.588057 0.000000
vn -0.808954 0.587872 0.000000
vn 0.000000 1.000000 0.000000
vn 0.000000 1.000000 0.000000
vn 0.000000 1.000000 0.000000
vn 0.000000 1.000000 0.000000
vn 0.309139 -0.951017 0.000000
vn 0.309056 -0.951044 0.000000
vn -0.950934 0.309393 0.000000
vn -0.951018 0.309136 0.000000
vn 0.000000 -1.000000 0.000000
vn 0.000000 -1.000000 0.000000
vn -1.000000 0.000416 0.000000
vn -1.000000 0.000133 0.000000
vn -0.309139 -0.951017 0.000000
vn -0.309056 -0.951044 0.000000
vn -0.951179 -0.308640 0.000000
vn -0.951096 -0.308896 0.000000
vn -0.587983 -0.808873 0.000000
vn -0.587848 -0.808971 0.000000
vn -0.809215 -0.587513 0.000000
vn -0.809080 -0.587699 0.000000
vn 0.000000 0.000000 1.000000
vn 0.000000 0.000000 1.000000
vn 0.000000 0.000000 1.000000
vn 0.000000 0.000000 1.000000
vn 0.707124 0.707089 0.000000
vn 0.707124 0.707089 0.000000
vn 0.707124 0.707089 0.000000
vn 0.707124 0.707089 0.000000
vn 0.000000 0.002846 0.999996
vn 0.000000 0.002846 0.999996
vn 0.000000 0.002846 0.999996
vn 0.000000 0.002846 0.999996
vn 0.000000 0.002846 0.999996
vn 0.000000 0.002846 0.999996
vn 0.000000 0.002846 0.999996
vn 0.000000 0.002846 0.999996
vn 0.000000 0.002846 0.999996
vn 0.000000 0.002846 0.999996
vn 0.000000 0.002846 0.999996
vn 0.000000 0.002846 0.999996
vn 0.000000 0.002846 0.999996
vn 0.000000 0.002846 0.999996
vn 0.000000 0.002846 0.999996
vn 0.000000 0.002846 0.999996
vn 0.000000 0.002846 0.999996
vn 0.000000 0.002846 0.999996
vn 0.000000 0.002846 0.999996
vn 0.000000 0.002846 0.999996
vn 0.000000 0.002846 0.999996
vn 0.000000 0.002846 0.999996
vn 0.000000 0.002846 0.999996
vn 0.000000 0.002846 0.999996
vn 0.000000 0.002846 0.999996
vn 0.000000 0.002846 0.999996
vn 0.000000 0.002846 0.999996
vn 0.000000 0.002846 0.999996
vn 0.000000 0.002846 0.999996
vn 0.000000 0.002846 0.999996
vn 0.000000 0.002846 0.999996
vn 0.000000 0.002846 0.999996
vn 0.000000 0.002846 0.999996
vn 0.000000 0.002846 0.999996
vn 0.000000 0.002846 0.999996
vn 0.000000 0.002846 0.999996
vn 0.000000 0.002846 0.999996
vn 0.000000 0.002846 0.999996
vn 0.000000 0.002846 0.999996
vn 0.000000 0.002846 0.999996
vn 0.000000 0.002846 0.999996
vn 0.000000 0.002846 0.999996
vn 0.000000 0.002846 0.999996
vn 0.000000 0.002846 0.999996
vn 0.000000 0.645535 -0.763731
vn 0.000000 0.645535 -0.763731
vn 0.000000 0.645535 -0.763731
vn 0.000000 0.645535 -0.763731
vn -0.695382 0.718640 0.000000
vn -0.695382 0.718640 0.000000
vn -0.695382 0.718640 0.000000
vn -0.695382 0.718640 0.000000
vn 0.000000 0.000000 -1.000000
vn 0.000000 0.000000 -1.000000
vn 0.000000 0.000000 -1.000000
vn 0.000000 0.000000 -1.000000
vn -1.000000 0.000000 0.000000
vn -1.000000 0.000000 0.000000
vn -1.000000 0.000000 0.000000
vn -1.000000 0.000000 0.000000
s off
g pCube2
usemtl lambert3SG
f 1/77/1 2/78/2 3/79/3 4/80/4
s 1
f 5/125/5 6/126/6 7/127/7
f 7/127/7 6/126/6 8/129/8
f 9/128/9 6/126/6 5/125/5
f 8/129/8 6/126/6 10/131/10
f 11/130/11 6/126/6 9/128/9
f 10/131/10 6/126/6 12/133/12
f 13/132/13 6/126/6 11/130/11
s off
f 14/1/14 15/2/15 16/3/16 17/4/17
s 1
f 12/133/12 6/126/6 18/135/18
f 19/134/19 6/126/6 13/132/13
s off
f 17/146/20 20/147/21 21/148/22 14/149/23
s 2
f 22/12/24 23/15/25 5/16/26 7/13/27
s 1
f 18/135/18 6/126/6 24/137/28
f 25/136/29 6/126/6 19/134/19
s 2
f 26/11/30 22/12/24 7/13/27 8/14/31
f 23/81/25 27/82/32 9/83/33 5/84/26
s off
f 28/156/34 29/157/35 4/158/36 3/159/37
s 1
f 30/138/38 6/126/6 25/136/29
f 24/137/28 6/126/6 31/139/39
s 2
f 32/17/40 26/11/30 8/14/31 10/18/41
f 27/82/32 33/85/42 11/86/43 9/83/33
s off
f 34/160/44 15/161/45 29/157/46 28/156/47
s 1
f 35/140/48 6/126/6 30/138/38
f 31/139/39 6/126/6 36/141/49
f 37/142/50 6/126/6 35/140/48
f 36/141/49 6/126/6 38/143/51
s off
f 39/25/52 28/26/53 3/27/54 2/28/55
s 1
f 38/143/51 6/126/6 40/145/56
f 41/144/57 6/126/6 37/142/50
f 40/145/56 6/126/6 41/144/57
s 2
f 42/19/58 32/17/40 10/18/41 12/20/59
f 33/85/42 43/87/60 13/88/61 11/86/43
s off
f 21/29/62 34/30/63 28/26/64 39/25/65
s 3
f 44/206/66 45/207/67 46/208/68
f 47/209/69 45/207/67 44/206/66
f 46/208/68 45/207/67 48/210/70
f 48/210/70 45/207/67 49/212/71
f 50/211/72 45/207/67 47/209/69
f 49/212/71 45/207/67 51/214/73
f 52/213/74 45/207/67 50/211/72
s 2
f 53/21/75 42/19/58 12/20/59 18/22/76
f 43/87/60 54/89/77 19/90/78 13/88/61
s 3
f 51/214/73 45/207/67 55/216/79
f 56/215/80 45/207/67 52/213/74
f 55/216/79 45/207/67 57/218/81
f 58/217/82 45/207/67 56/215/80
f 59/219/83 45/207/67 58/217/82
f 57/218/81 45/207/67 60/220/84
f 61/221/85 45/207/67 59/219/83
f 60/220/84 45/207/67 62/222/86
s 2
f 63/23/87 53/21/75 18/22/76 24/24/88
f 54/41/77 64/35/89 25/38/90 19/42/78
s 3
f 62/222/86 45/207/67 65/224/91
f 66/223/92 45/207/67 61/221/85
f 65/224/91 45/207/67 67/226/93
f 68/225/94 45/207/67 66/223/92
f 67/226/93 45/207/67 68/225/94
s 2
f 69/91/95 63/92/87 24/93/88 31/94/96
f 64/35/89 70/36/97 30/37/98 25/38/90
s off
f 16/3/99 71/7/100 72/8/101 17/4/102
f 20/147/103 17/146/104 72/150/105 73/151/106
s 2
f 74/95/107 69/91/95 31/94/96 36/96/108
f 70/36/97 75/39/109 35/40/110 30/37/98
s 4
f 76/50/111 77/53/112 44/54/113 46/51/114
f 78/49/115 76/50/111 46/51/114 48/52/116
f 77/101/112 79/102/117 47/103/118 44/104/113
s 2
f 80/97/119 74/95/107 36/96/108 38/98/120
f 75/39/109 81/43/121 37/44/122 35/40/110
s off
f 34/30/123 21/29/124 20/31/125 82/32/126
s 4
f 83/55/127 78/49/115 48/52/116 49/56/128
f 79/102/117 84/105/129 50/106/130 47/103/118
s 2
f 85/99/131 80/97/119 38/98/120 40/100/132
f 81/43/121 86/45/133 41/46/134 37/44/122
s 4
f 87/57/135 83/55/127 49/56/128 51/58/136
f 84/105/129 88/107/137 52/108/138 50/106/130
s 2
f 86/45/133 85/47/131 40/48/132 41/46/134
s 4
f 89/59/139 87/57/135 51/58/136 55/60/140
f 88/107/137 90/109/141 56/110/142 52/108/138
f 91/61/143 89/59/139 55/60/140 57/62/144
f 90/69/141 92/63/145 58/66/146 56/70/142
s off
f 72/111/147 71/112/148 93/113/149 73/114/150
s 4
f 94/115/151 91/116/143 57/117/144 60/118/152
f 92/63/145 95/64/153 59/65/154 58/66/146
f 96/119/155 94/115/151 60/118/152 62/120/156
f 95/64/153 97/67/157 61/68/158 59/65/154
f 98/121/159 96/119/155 62/120/156 65/122/160
f 97/67/157 99/71/161 66/72/162 61/68/158
f 100/123/163 98/121/159 65/122/160 67/124/164
f 99/71/161 101/73/165 68/74/166 66/72/162
f 101/73/165 100/75/163 67/76/164 68/74/166
s off
f 16/185/167 82/184/168 93/204/169 71/205/170
f 93/33/171 82/32/172 20/31/173 73/34/174
s 5
f 15/161/175 33/183/176 27/186/177 23/187/178 22/188/179 26/189/180 32/190/181 42/191/182 53/192/183 63/193/184 69/194/185 74/173/186 84/172/187 79/195/188 77/196/189 76/197/190 78/198/191 83/199/192 87/200/193 89/201/194 91/202/195 94/203/196 96/162/197 16/185/198
f 96/162/197 98/163/199 100/164/200 101/165/201 99/166/202 97/167/203 95/168/204 92/169/205 90/170/206 88/171/207 84/172/187 74/173/186 80/174/208 85/175/209 86/176/210 81/177/211 75/178/212 70/179/213 64/180/214 54/181/215 43/182/216 33/183/176 15/161/175 34/160/217 82/184/218 16/185/198
s off
f 14/149/219 21/148/220 39/152/221 102/153/222
f 15/2/223 14/1/224 102/5/225 29/6/226
f 102/153/227 39/152/228 2/154/229 1/155/230
f 29/6/231 102/5/232 1/9/233 4/10/234
