# This file uses centimeters as units for non-parametric coordinates.

mtllib stove obj.mtl
g default
v -3.045278 13.054596 2.663224
v 1.975842 13.054596 2.663224
v -3.045278 14.054596 2.663224
v 1.975842 14.054596 2.663224
v -3.045278 14.054596 -2.969531
v 1.975842 14.054596 -2.969531
v -3.045278 13.054596 -2.969531
v 1.975842 13.054596 -2.969531
v -3.045278 15.535745 0.206789
v 1.975842 15.535745 0.206789
v 1.975842 15.535745 -2.922516
v -3.045278 15.535745 -2.922516
v -2.068447 24.670695 0.206789
v 0.999011 24.670695 0.206789
v 0.999011 24.670695 -2.922516
v -2.068447 24.670695 -2.922516
vt 0.444444 0.001992
vt 0.685040 0.001992
vt 0.685040 0.044706
vt 0.444444 0.044706
vt 0.683032 0.107971
vt 0.549368 0.107971
vt 0.683032 0.498158
vt 0.549368 0.498158
vt 0.680360 0.501842
vt 0.920956 0.501842
vt 0.920956 0.544555
vt 0.680360 0.544555
vt 0.816032 0.607821
vt 0.682368 0.607821
vt 0.816032 0.998008
vt 0.682368 0.998008
vt 0.323544 0.501842
vt 0.454566 0.501842
vt 0.454566 0.635506
vt 0.323544 0.635506
vt 0.460228 0.501842
vt 0.674698 0.501842
vt 0.674698 0.742437
vt 0.460228 0.742437
vt 0.001838 0.001992
vt 0.216309 0.001992
vt 0.216309 0.044706
vt 0.001838 0.044706
vt 0.216309 0.107971
vt 0.001838 0.107971
vt 0.174585 0.498158
vt 0.043562 0.498158
vt 0.223231 0.455445
vt 0.437702 0.455445
vt 0.437702 0.498158
vt 0.223231 0.498158
vt 0.223231 0.392179
vt 0.437702 0.392179
vt 0.264955 0.001992
vt 0.395978 0.001992
vn 0.000000 0.000000 1.000000
vn 0.000000 0.000000 1.000000
vn 0.000000 0.000000 1.000000
vn 0.000000 0.000000 1.000000
vn 0.000000 1.000000 0.000000
vn 0.000000 1.000000 0.000000
vn 0.000000 1.000000 0.000000
vn 0.000000 1.000000 0.000000
vn 0.000000 0.000000 -1.000000
vn 0.000000 0.000000 -1.000000
vn 0.000000 0.000000 -1.000000
vn 0.000000 0.000000 -1.000000
vn 0.000000 -1.000000 0.000000
vn 0.000000 -1.000000 0.000000
vn 0.000000 -1.000000 0.000000
vn 0.000000 -1.000000 0.000000
vn 1.000000 0.000000 0.000000
vn 1.000000 0.000000 0.000000
vn 1.000000 0.000000 0.000000
vn 1.000000 0.000000 0.000000
vn -1.000000 0.000000 0.000000
vn -1.000000 0.000000 0.000000
vn -1.000000 0.000000 0.000000
vn -1.000000 0.000000 0.000000
vn 0.000000 0.856370 0.516363
vn 0.000000 0.856370 0.516363
vn 0.000000 0.856370 0.516363
vn 0.000000 0.856370 0.516363
vn 1.000000 0.000000 0.000000
vn 1.000000 0.000000 0.000000
vn 1.000000 0.000000 0.000000
vn 1.000000 0.000000 0.000000
vn 0.000000 0.031726 -0.999497
vn 0.000000 0.031726 -0.999497
vn 0.000000 0.031726 -0.999497
vn 0.000000 0.031726 -0.999497
vn -1.000000 0.000000 0.000000
vn -1.000000 0.000000 0.000000
vn -1.000000 0.000000 0.000000
vn -1.000000 0.000000 0.000000
vn 0.000000 0.000000 1.000000
vn 0.000000 0.000000 1.000000
vn 0.000000 0.000000 1.000000
vn 0.000000 0.000000 1.000000
vn 0.994331 0.106327 0.000000
vn 0.994331 0.106327 0.000000
vn 0.994331 0.106327 0.000000
vn 0.994331 0.106327 0.000000
vn 0.000000 0.000000 -1.000000
vn 0.000000 0.000000 -1.000000
vn 0.000000 0.000000 -1.000000
vn 0.000000 0.000000 -1.000000
vn -0.994331 0.106327 0.000000
vn -0.994331 0.106327 0.000000
vn -0.994331 0.106327 0.000000
vn -0.994331 0.106327 0.000000
s off
g pCube6
usemtl initialShadingGroup
f 1/25/1 2/26/2 4/27/3 3/28/4
f 13/17/5 14/18/6 15/19/7 16/20/8
f 5/33/9 6/34/10 8/35/11 7/36/12
f 7/21/13 8/22/14 2/23/15 1/24/16
f 2/1/17 8/2/18 6/3/19 4/4/20
f 7/9/21 1/10/22 3/11/23 5/12/24
f 3/28/25 4/27/26 10/29/27 9/30/28
f 4/4/29 6/3/30 11/5/31 10/6/32
f 6/34/33 5/33/34 12/37/35 11/38/36
f 5/12/37 3/11/38 9/13/39 12/14/40
f 9/30/41 10/29/42 14/31/43 13/32/44
f 10/6/45 11/5/46 15/7/47 14/8/48
f 11/38/49 12/37/50 16/39/51 15/40/52
f 12/14/53 9/13/54 13/15/55 16/16/56
g default
v -3.611231 0.518456 3.028541
v 2.445851 0.518456 3.028541
v -3.611231 6.575540 3.028541
v 2.445851 6.575540 3.028541
v -3.611231 6.575540 -3.028541
v 2.445851 6.575540 -3.028541
v -3.611231 0.518456 -3.028541
v 2.445851 0.518456 -3.028541
v -3.611231 7.338257 3.028541
v 2.445851 7.338257 3.028541
v 2.445851 7.338257 -3.028541
v -3.611231 7.338257 -3.028541
v -3.611231 6.575540 3.512877
v 2.445851 6.575540 3.512877
v 2.445851 7.338257 3.512877
v -3.611231 7.338257 3.512877
v -1.929044 5.602159 3.894453
v 0.801554 5.602159 3.894453
v -1.929044 5.996417 3.894453
v 0.801554 5.996417 3.894453
v -1.929044 5.996417 3.500196
v 0.801554 5.996417 3.500196
v -1.929044 5.602159 3.500196
v 0.801554 5.602159 3.500196
v 1.364598 5.602159 3.500196
v 1.364598 5.602159 3.894453
v 1.364598 5.996417 3.500196
v 1.364598 5.996417 3.894453
v -2.492088 5.602159 3.500196
v -2.492088 5.602159 3.894453
v -2.492088 5.996417 3.894453
v -2.492088 5.996417 3.500196
v 0.801554 5.996417 2.945835
v 0.801554 5.602159 2.945835
v 1.364598 5.996417 2.945835
v 1.364598 5.602159 2.945835
v -1.929044 5.996417 2.945835
v -1.929044 5.602159 2.945835
v -2.492088 5.602159 2.945835
v -2.492088 5.996417 2.945835
vt 0.336382 0.001992
vt 0.640365 0.001992
vt 0.640365 0.305974
vt 0.336382 0.305974
vt 0.640365 0.344252
vt 0.336382 0.344252
vt 0.312076 0.344252
vt 0.312076 0.305974
vt 0.611070 0.348009
vt 0.915053 0.348009
vt 0.915053 0.651991
vt 0.611070 0.651991
vt 0.915053 0.690269
vt 0.611070 0.690269
vt 0.939359 0.651991
vt 0.939359 0.690269
vt 0.860567 0.741633
vt 0.860567 0.721847
vt 0.880354 0.721847
vt 0.880354 0.741633
vt 0.860567 0.694026
vt 0.880354 0.694026
vt 0.886249 0.713812
vt 0.886249 0.694026
vt 0.906035 0.694026
vt 0.906035 0.713812
vt 0.906035 0.741633
vt 0.886249 0.741633
vt 0.894012 0.745390
vt 0.913798 0.745390
vt 0.913798 0.773212
vt 0.894012 0.773212
vt 0.888237 0.773212
vt 0.868451 0.773212
vt 0.868451 0.745390
vt 0.888237 0.745390
vt 0.301314 0.372316
vt 0.605296 0.372316
vt 0.605296 0.676298
vt 0.301314 0.676298
vt 0.301314 0.348009
vt 0.605296 0.348009
vt 0.312076 0.694026
vt 0.616058 0.694026
vt 0.616058 0.998008
vt 0.312076 0.998008
vt 0.667953 0.998008
vt 0.667953 0.694026
vt 0.692260 0.694026
vt 0.692260 0.998008
vt 0.724820 0.859321
vt 0.724820 0.722283
vt 0.744606 0.722283
vt 0.744606 0.859321
vt 0.724820 0.694026
vt 0.744606 0.694026
vt 0.744606 0.887578
vt 0.724820 0.887578
vt 0.772428 0.694026
vt 0.772428 0.722283
vt 0.772428 0.859321
vt 0.772428 0.887578
vt 0.807674 0.859321
vt 0.807674 0.722283
vt 0.827460 0.722283
vt 0.827460 0.859321
vt 0.807674 0.694026
vt 0.827460 0.694026
vt 0.827460 0.887578
vt 0.807674 0.887578
vt 0.779853 0.722283
vt 0.779853 0.694026
vt 0.779853 0.887578
vt 0.779853 0.859321
vt 0.001875 0.680055
vt 0.305857 0.680055
vt 0.305857 0.984037
vt 0.001875 0.984037
vt 0.001875 0.040270
vt 0.305857 0.040270
vt 0.305857 0.344252
vt 0.001875 0.344252
vt 0.001875 0.001992
vt 0.305857 0.001992
vt 0.622093 0.998008
vt 0.622093 0.694026
vt 0.660371 0.694026
vt 0.660371 0.998008
vt 0.699138 0.859321
vt 0.699138 0.722283
vt 0.718925 0.722283
vt 0.718925 0.859321
vt 0.699138 0.694026
vt 0.718925 0.694026
vt 0.718925 0.887578
vt 0.699138 0.887578
vt 0.834885 0.831064
vt 0.834885 0.694026
vt 0.854672 0.694026
vt 0.854672 0.831064
vt 0.931718 0.722283
vt 0.911931 0.722283
vt 0.911931 0.694026
vt 0.931718 0.694026
vt 0.919573 0.726040
vt 0.939359 0.726040
vt 0.939359 0.754297
vt 0.919573 0.754297
vn 0.000000 0.000000 1.000000
vn 0.000000 0.000000 1.000000
vn 0.000000 0.000000 1.000000
vn 0.000000 0.000000 1.000000
vn 0.000000 1.000000 0.000000
vn 0.000000 1.000000 0.000000
vn 0.000000 1.000000 0.000000
vn 0.000000 1.000000 0.000000
vn 0.000000 0.000000 -1.000000
vn 0.000000 0.000000 -1.000000
vn 0.000000 0.000000 -1.000000
vn 0.000000 0.000000 -1.000000
vn 0.000000 -1.000000 0.000000
vn 0.000000 -1.000000 0.000000
vn 0.000000 -1.000000 0.000000
vn 0.000000 -1.000000 0.000000
vn 1.000000 0.000000 0.000000
vn 1.000000 0.000000 0.000000
vn 1.000000 0.000000 0.000000
vn 1.000000 0.000000 0.000000
vn -1.000000 0.000000 0.000000
vn -1.000000 0.000000 0.000000
vn -1.000000 0.000000 0.000000
vn -1.000000 0.000000 0.000000
vn 0.000000 0.000000 1.000000
vn 0.000000 0.000000 1.000000
vn 0.000000 0.000000 1.000000
vn 0.000000 0.000000 1.000000
vn 1.000000 0.000000 0.000000
vn 1.000000 0.000000 0.000000
vn 1.000000 0.000000 0.000000
vn 1.000000 0.000000 0.000000
vn 0.000000 0.000000 -1.000000
vn 0.000000 0.000000 -1.000000
vn 0.000000 0.000000 -1.000000
vn 0.000000 0.000000 -1.000000
vn -1.000000 0.000000 0.000000
vn -1.000000 0.000000 0.000000
vn -1.000000 0.000000 0.000000
vn -1.000000 0.000000 0.000000
vn 0.000000 -1.000000 0.000000
vn 0.000000 -1.000000 0.000000
vn 0.000000 -1.000000 0.000000
vn 0.000000 -1.000000 0.000000
vn 1.000000 0.000000 0.000000
vn 1.000000 0.000000 0.000000
vn 1.000000 0.000000 0.000000
vn 1.000000 0.000000 0.000000
vn 0.000000 1.000000 0.000000
vn 0.000000 1.000000 0.000000
vn 0.000000 1.000000 0.000000
vn 0.000000 1.000000 0.000000
vn -1.000000 0.000000 0.000000
vn -1.000000 0.000000 0.000000
vn -1.000000 0.000000 0.000000
vn -1.000000 0.000000 0.000000
vn 0.000000 0.000000 1.000000
vn 0.000000 0.000000 1.000000
vn 0.000000 0.000000 1.000000
vn 0.000000 0.000000 1.000000
vn 0.000000 1.000000 0.000000
vn 0.000000 1.000000 0.000000
vn 0.000000 1.000000 0.000000
vn 0.000000 1.000000 0.000000
vn 0.000000 0.000000 -1.000000
vn 0.000000 0.000000 -1.000000
vn 0.000000 0.000000 -1.000000
vn 0.000000 0.000000 -1.000000
vn 0.000000 -1.000000 0.000000
vn 0.000000 -1.000000 0.000000
vn 0.000000 -1.000000 0.000000
vn 0.000000 -1.000000 0.000000
vn 1.000000 0.000000 0.000000
vn 1.000000 0.000000 0.000000
vn 1.000000 0.000000 0.000000
vn 1.000000 0.000000 0.000000
vn -1.000000 0.000000 0.000000
vn -1.000000 0.000000 0.000000
vn -1.000000 0.000000 0.000000
vn -1.000000 0.000000 0.000000
vn 0.000000 -1.000000 0.000000
vn 0.000000 -1.000000 0.000000
vn 0.000000 -1.000000 0.000000
vn 0.000000 -1.000000 0.000000
vn 0.000000 0.000000 -1.000000
vn 0.000000 0.000000 -1.000000
vn 0.000000 0.000000 -1.000000
vn 0.000000 0.000000 -1.000000
vn 0.000000 1.000000 0.000000
vn 0.000000 1.000000 0.000000
vn 0.000000 1.000000 0.000000
vn 0.000000 1.000000 0.000000
vn 0.000000 0.000000 1.000000
vn 0.000000 0.000000 1.000000
vn 0.000000 0.000000 1.000000
vn 0.000000 0.000000 1.000000
vn 0.000000 -1.000000 0.000000
vn 0.000000 -1.000000 0.000000
vn 0.000000 -1.000000 0.000000
vn 0.000000 -1.000000 0.000000
vn 0.000000 0.000000 1.000000
vn 0.000000 0.000000 1.000000
vn 0.000000 0.000000 1.000000
vn 0.000000 0.000000 1.000000
vn 0.000000 1.000000 0.000000
vn 0.000000 1.000000 0.000000
vn 0.000000 1.000000 0.000000
vn 0.000000 1.000000 0.000000
vn 0.000000 0.000000 -1.000000
vn 0.000000 0.000000 -1.000000
vn 0.000000 0.000000 -1.000000
vn 0.000000 0.000000 -1.000000
vn -1.000000 0.000000 0.000000
vn -1.000000 0.000000 0.000000
vn -1.000000 0.000000 0.000000
vn -1.000000 0.000000 0.000000
vn 0.000000 1.000000 0.000000
vn 0.000000 1.000000 0.000000
vn 0.000000 1.000000 0.000000
vn 0.000000 1.000000 0.000000
vn 1.000000 0.000000 0.000000
vn 1.000000 0.000000 0.000000
vn 1.000000 0.000000 0.000000
vn 1.000000 0.000000 0.000000
vn 0.000000 -1.000000 0.000000
vn 0.000000 -1.000000 0.000000
vn 0.000000 -1.000000 0.000000
vn 0.000000 -1.000000 0.000000
vn 1.000000 0.000000 0.000000
vn 1.000000 0.000000 0.000000
vn 1.000000 0.000000 0.000000
vn 1.000000 0.000000 0.000000
vn 0.000000 -1.000000 0.000000
vn 0.000000 -1.000000 0.000000
vn 0.000000 -1.000000 0.000000
vn 0.000000 -1.000000 0.000000
vn -1.000000 0.000000 0.000000
vn -1.000000 0.000000 0.000000
vn -1.000000 0.000000 0.000000
vn -1.000000 0.000000 0.000000
vn 0.000000 1.000000 0.000000
vn 0.000000 1.000000 0.000000
vn 0.000000 1.000000 0.000000
vn 0.000000 1.000000 0.000000
s off
g pCube7
usemtl initialShadingGroup
f 17/115/57 18/116/58 20/117/59 19/118/60
f 25/77/61 26/78/62 27/79/63 28/80/64
f 21/119/65 22/120/66 24/121/67 23/122/68
f 23/83/69 24/84/70 18/85/71 17/86/72
f 18/41/73 24/42/74 22/43/75 20/44/76
f 23/49/77 17/50/78 19/51/79 21/52/80
f 29/125/81 30/126/82 31/127/83 32/128/84
f 20/44/85 22/43/86 27/45/87 26/46/88
f 22/120/89 21/119/90 28/123/91 27/124/92
f 21/52/93 19/51/94 25/53/95 28/54/96
f 19/87/97 20/88/98 30/89/99 29/90/100
f 20/44/101 26/46/102 31/47/103 30/48/104
f 26/78/105 25/77/106 32/81/107 31/82/108
f 25/53/109 19/51/110 29/55/111 32/56/112
f 33/129/113 34/130/114 36/131/115 35/132/116
f 35/91/117 36/92/118 38/93/119 37/94/120
f 37/137/121 38/138/122 40/139/123 39/140/124
f 39/103/125 40/104/126 34/105/127 33/106/128
f 42/57/129 41/58/130 43/59/131 44/60/132
f 45/63/133 46/64/134 47/65/135 48/66/136
f 34/105/137 40/104/138 41/107/139 42/108/140
f 50/141/141 49/142/142 51/143/143 52/144/144
f 38/93/145 36/92/146 44/95/147 43/96/148
f 36/131/149 34/130/150 42/133/151 44/134/152
f 39/103/153 33/106/154 46/109/155 45/110/156
f 33/129/157 35/132/158 47/135/159 46/136/160
f 35/91/161 37/94/162 48/97/163 47/98/164
f 53/145/165 54/146/166 55/147/167 56/148/168
f 40/69/169 38/70/170 49/71/171 50/72/172
f 38/93/173 43/96/174 51/99/175 49/100/176
f 43/59/177 41/58/178 52/61/179 51/62/180
f 41/107/181 40/104/182 50/111/183 52/112/184
f 37/73/185 39/74/186 54/75/187 53/76/188
f 39/103/189 45/110/190 55/113/191 54/114/192
f 45/63/193 48/66/194 56/67/195 55/68/196
f 48/97/197 37/94/198 53/101/199 56/102/200
