# This file uses centimeters as units for non-parametric coordinates.

mtllib tall cab obj.mtl
g default
v -4.600649 3.510400 -1.681201
v -4.600649 3.510400 1.681201
v -4.600649 11.202406 1.681201
v -4.600649 11.202406 -1.681201
v 4.600649 11.202406 -1.681201
v 4.600649 3.510400 -1.681201
v -0.194357 3.510400 1.681201
v -0.194357 11.202406 1.681201
v 0.194357 11.202406 0.610155
v -0.194357 11.202406 0.610155
v -0.194357 3.510400 0.610155
v 0.194357 3.510400 0.610155
v 0.194357 3.510400 1.681201
v 0.194357 11.202406 1.681201
v 4.600649 3.510400 1.681201
v 4.600649 11.202406 1.681201
vt 0.797359 0.001824
vt 0.978080 0.001824
vt 0.978080 0.415250
vt 0.797359 0.415250
vt 0.728018 0.913789
vt 0.670452 0.913789
vt 0.670452 0.500363
vt 0.728018 0.500363
vt 0.606750 0.500363
vt 0.664316 0.500363
vt 0.664316 0.913789
vt 0.606750 0.913789
vt 0.176931 0.500363
vt 0.357652 0.500363
vt 0.357652 0.913789
vt 0.176931 0.913789
vt 0.423161 0.496371
vt 0.423161 0.001824
vt 0.603881 0.001824
vt 0.603881 0.238651
vt 0.546315 0.238651
vt 0.546315 0.259544
vt 0.603881 0.259544
vt 0.603881 0.496371
vt 0.610260 0.496371
vt 0.610260 0.259544
vt 0.667826 0.259544
vt 0.667826 0.238651
vt 0.610260 0.238651
vt 0.610260 0.001824
vt 0.790981 0.001824
vt 0.790981 0.496371
vt 0.001992 0.496371
vt 0.001992 0.001824
vt 0.415418 0.001824
vt 0.415418 0.496371
vt 0.761181 0.500363
vt 0.998008 0.500363
vt 0.998008 0.913789
vt 0.761181 0.913789
vt 0.755045 0.913789
vt 0.734153 0.913789
vt 0.734153 0.500363
vt 0.755045 0.500363
vt 0.363787 0.500363
vt 0.600615 0.500363
vt 0.600615 0.913789
vt 0.363787 0.913789
vn -1.000000 0.000000 0.000000
vn -1.000000 0.000000 0.000000
vn -1.000000 0.000000 0.000000
vn -1.000000 0.000000 0.000000
vn 0.000000 0.000000 -1.000000
vn 0.000000 0.000000 -1.000000
vn 0.000000 0.000000 -1.000000
vn 0.000000 0.000000 -1.000000
vn 0.000000 0.000000 1.000000
vn 0.000000 0.000000 1.000000
vn 0.000000 0.000000 1.000000
vn 0.000000 0.000000 1.000000
vn 0.000000 0.000000 1.000000
vn 0.000000 0.000000 1.000000
vn 0.000000 0.000000 1.000000
vn 0.000000 0.000000 1.000000
vn 1.000000 0.000000 0.000000
vn 1.000000 0.000000 0.000000
vn 1.000000 0.000000 0.000000
vn 1.000000 0.000000 0.000000
vn -1.000000 0.000000 0.000000
vn -1.000000 0.000000 0.000000
vn -1.000000 0.000000 0.000000
vn -1.000000 0.000000 0.000000
vn 0.000000 0.000000 1.000000
vn 0.000000 0.000000 1.000000
vn 0.000000 0.000000 1.000000
vn 0.000000 0.000000 1.000000
vn 1.000000 0.000000 0.000000
vn 1.000000 0.000000 0.000000
vn 1.000000 0.000000 0.000000
vn 1.000000 0.000000 0.000000
vn 0.000000 -1.000000 0.000000
vn 0.000000 -1.000000 0.000000
vn 0.000000 -1.000000 0.000000
vn 0.000000 -1.000000 0.000000
vn 0.000000 -1.000000 0.000000
vn 0.000000 -1.000000 0.000000
vn 0.000000 -1.000000 0.000000
vn 0.000000 -1.000000 0.000000
vn 0.000000 1.000000 0.000000
vn 0.000000 1.000000 0.000000
vn 0.000000 1.000000 0.000000
vn 0.000000 1.000000 0.000000
vn 0.000000 1.000000 0.000000
vn 0.000000 1.000000 0.000000
vn 0.000000 1.000000 0.000000
vn 0.000000 1.000000 0.000000
s off
g pCube3
usemtl initialShadingGroup
f 1/1/1 2/2/2 3/3/3 4/4/4
f 4/33/5 5/34/6 6/35/7 1/36/8
f 2/37/9 7/38/10 8/39/11 3/40/12
f 9/41/13 10/42/14 11/43/15 12/44/16
f 10/5/17 8/6/18 7/7/19 11/8/20
f 12/9/21 13/10/22 14/11/23 9/12/24
f 13/45/25 15/46/26 16/47/27 14/48/28
f 15/13/29 6/14/30 5/15/31 16/16/32
f 1/17/33 6/18/34 15/19/35 13/20/36 12/21/37 11/22/38 7/23/39 2/24/40
f 3/25/41 8/26/42 10/27/43 9/28/44 14/29/45 16/30/46 5/31/47 4/32/48
