# This file uses centimeters as units for non-parametric coordinates.

mtllib toaster.mtl
g default
v -3.283824 0.874610 1.824605
v 3.283824 0.874610 1.824605
v -3.283824 5.539607 1.824605
v 3.283824 5.539607 1.824605
v -3.283824 5.539607 -1.824605
v 3.283824 5.539607 -1.824605
v -3.283824 0.874610 -1.824605
v 3.283824 0.874610 -1.824605
v 0.000000 0.874610 1.824605
v 0.000000 0.874610 -1.824605
v 0.000000 6.512542 -1.824605
v 0.000000 6.512542 1.824605
v 2.298677 0.874610 1.824605
v 2.298677 6.512542 1.824605
v 2.298677 6.512542 -1.824605
v 2.298677 0.874610 -1.824605
v -2.298677 0.874610 1.824605
v -2.298677 0.874610 -1.824605
v -2.298677 6.512542 -1.824605
v -2.298677 6.512542 1.824605
vt 0.375000 0.000000
vt 0.625000 0.000000
vt 0.375000 0.250000
vt 0.625000 0.250000
vt 0.375000 0.500000
vt 0.625000 0.500000
vt 0.375000 0.750000
vt 0.625000 0.750000
vt 0.375000 1.000000
vt 0.625000 1.000000
vt 0.875000 0.000000
vt 0.875000 0.250000
vt 0.125000 0.000000
vt 0.125000 0.250000
vt 0.500000 0.000000
vt 0.500000 1.000000
vt 0.500000 0.750000
vt 0.500000 0.500000
vt 0.500000 0.250000
vt 0.587500 0.000000
vt 0.587500 1.000000
vt 0.587500 0.250000
vt 0.587500 0.500000
vt 0.587500 0.750000
vt 0.412500 0.000000
vt 0.412500 1.000000
vt 0.412500 0.750000
vt 0.412500 0.500000
vt 0.412500 0.250000
vn 0.000000 0.000000 1.000000
vn 0.000000 0.000000 1.000000
vn -0.000000 0.000000 1.000000
vn -0.000000 0.000000 1.000000
vn 0.000000 1.000000 0.000000
vn 0.000000 1.000000 0.000000
vn 0.284075 0.958802 0.000000
vn 0.284075 0.958802 0.000000
vn 0.000000 0.000000 -1.000000
vn 0.000000 0.000000 -1.000000
vn -0.000000 0.000000 -1.000000
vn -0.000000 0.000000 -1.000000
vn 0.000000 -1.000000 0.000000
vn 0.000000 -1.000000 0.000000
vn 0.000000 -1.000000 0.000000
vn 0.000000 -1.000000 0.000000
vn 1.000000 0.000000 0.000000
vn 1.000000 0.000000 0.000000
vn 1.000000 0.000000 0.000000
vn 1.000000 0.000000 0.000000
vn -1.000000 0.000000 0.000000
vn -1.000000 0.000000 0.000000
vn -1.000000 0.000000 0.000000
vn -1.000000 0.000000 0.000000
vn 0.000000 -1.000000 0.000000
vn 0.000000 -1.000000 0.000000
vn 0.000000 0.000000 -1.000000
vn 0.000000 0.000000 -1.000000
vn -0.284075 0.958802 0.000000
vn -0.284075 0.958802 0.000000
vn 0.000000 0.000000 1.000000
vn 0.000000 0.000000 1.000000
vn 0.000000 0.000000 1.000000
vn 0.000000 0.000000 1.000000
vn 0.702683 0.711503 0.000000
vn 0.702683 0.711503 0.000000
vn 0.000000 0.000000 -1.000000
vn 0.000000 0.000000 -1.000000
vn 0.000000 -1.000000 0.000000
vn 0.000000 -1.000000 0.000000
vn 0.000000 -1.000000 0.000000
vn 0.000000 -1.000000 0.000000
vn 0.000000 0.000000 -1.000000
vn 0.000000 0.000000 -1.000000
vn -0.702683 0.711503 0.000000
vn -0.702683 0.711503 0.000000
vn 0.000000 0.000000 1.000000
vn 0.000000 0.000000 1.000000
s 1
g pCube1
usemtl initialShadingGroup
f 12/19/1 9/15/2 13/20/3 14/22/4
s 2
f 11/18/5 12/19/6 14/22/7 15/23/8
s 3
f 10/17/9 11/18/10 15/23/11 16/24/12
s 4
f 9/16/13 10/17/14 16/24/15 13/21/16
s off
f 2/2/17 8/11/18 6/12/19 4/4/20
f 7/13/21 1/1/22 3/3/23 5/14/24
s 4
f 17/26/25 18/27/26 10/17/14 9/16/13
s 3
f 18/27/27 19/28/28 11/18/10 10/17/9
s 2
f 19/28/29 20/29/30 12/19/6 11/18/5
s 1
f 20/29/31 17/25/32 9/15/2 12/19/1
f 14/22/4 13/20/3 2/2/33 4/4/34
s 2
f 15/23/8 14/22/7 4/4/35 6/6/36
s 3
f 16/24/12 15/23/11 6/6/37 8/8/38
s 4
f 13/21/16 16/24/15 8/8/39 2/10/40
f 7/7/41 18/27/26 17/26/25 1/9/42
s 3
f 5/5/43 19/28/28 18/27/27 7/7/44
s 2
f 3/3/45 20/29/30 19/28/29 5/5/46
s 1
f 1/1/47 17/25/32 20/29/31 3/3/48
g default
v -4.021228 4.594657 0.500000
v -3.021228 4.594657 0.500000
v -4.021228 5.065253 0.500000
v -3.021228 5.065253 0.500000
v -4.021228 5.065253 -0.500000
v -3.021228 5.065253 -0.500000
v -4.021228 4.594657 -0.500000
v -3.021228 4.594657 -0.500000
vt 0.375000 0.000000
vt 0.625000 0.000000
vt 0.375000 0.250000
vt 0.625000 0.250000
vt 0.375000 0.500000
vt 0.625000 0.500000
vt 0.375000 0.750000
vt 0.625000 0.750000
vt 0.375000 1.000000
vt 0.625000 1.000000
vt 0.875000 0.000000
vt 0.875000 0.250000
vt 0.125000 0.000000
vt 0.125000 0.250000
vn 0.000000 0.000000 1.000000
vn 0.000000 0.000000 1.000000
vn 0.000000 0.000000 1.000000
vn 0.000000 0.000000 1.000000
vn 0.000000 1.000000 0.000000
vn 0.000000 1.000000 0.000000
vn 0.000000 1.000000 0.000000
vn 0.000000 1.000000 0.000000
vn 0.000000 0.000000 -1.000000
vn 0.000000 0.000000 -1.000000
vn 0.000000 0.000000 -1.000000
vn 0.000000 0.000000 -1.000000
vn 0.000000 -1.000000 0.000000
vn 0.000000 -1.000000 0.000000
vn 0.000000 -1.000000 0.000000
vn 0.000000 -1.000000 0.000000
vn 1.000000 0.000000 0.000000
vn 1.000000 0.000000 0.000000
vn 1.000000 0.000000 0.000000
vn 1.000000 0.000000 0.000000
vn -1.000000 0.000000 0.000000
vn -1.000000 0.000000 0.000000
vn -1.000000 0.000000 0.000000
vn -1.000000 0.000000 0.000000
s off
g pCube2
usemtl initialShadingGroup
f 21/30/49 22/31/50 24/33/51 23/32/52
f 23/32/53 24/33/54 26/35/55 25/34/56
f 25/34/57 26/35/58 28/37/59 27/36/60
f 27/36/61 28/37/62 22/39/63 21/38/64
f 22/31/65 28/40/66 26/41/67 24/33/68
f 27/42/69 21/30/70 23/32/71 25/43/72
