# This file uses centimeters as units for non-parametric coordinates.

mtllib fridge obj.mtl
g default
v -2.183290 0.554539 -2.801423
v 2.183290 0.554539 -2.801423
v 2.183290 0.554539 2.801423
v -2.183290 0.554539 2.801423
v -2.183290 11.467430 -2.801423
v 2.183290 11.467430 -2.801423
v 2.183290 7.174239 2.801423
v -2.183290 7.174239 2.801423
v -2.183290 7.174239 2.416843
v 2.183290 7.174239 2.416843
v -2.183290 7.754176 2.416843
v 2.183290 7.754176 2.416843
v 2.183290 7.754176 2.801423
v -2.183290 7.754176 2.801423
v -2.183290 11.467430 2.801423
v 2.183290 11.467430 2.801423
v -1.552483 12.253688 1.992022
v 1.552483 12.253688 1.992022
v 1.552483 12.253688 -1.992022
v -1.552483 12.253688 -1.992022
vt 0.001992 0.001839
vt 0.294600 0.001839
vt 0.294600 0.347552
vt 0.274515 0.347552
vt 0.274515 0.377839
vt 0.294600 0.377839
vt 0.294600 0.571763
vt 0.001992 0.571763
vt 0.252329 0.612826
vt 0.044263 0.612826
vt 0.302326 0.001839
vt 0.594933 0.001839
vt 0.594933 0.571763
vt 0.302326 0.571763
vt 0.302326 0.377839
vt 0.322410 0.377839
vt 0.322410 0.347552
vt 0.302326 0.347552
vt 0.552663 0.612826
vt 0.344596 0.612826
vt 0.535785 0.616817
vt 0.763829 0.616817
vt 0.763829 0.909425
vt 0.535785 0.909425
vt 0.295470 0.844861
vt 0.275386 0.844861
vt 0.275386 0.616817
vt 0.295470 0.616817
vt 0.212743 0.616817
vt 0.232828 0.616817
vt 0.232828 0.844861
vt 0.212743 0.844861
vt 0.334549 0.659088
vt 0.496706 0.659088
vt 0.496706 0.867154
vt 0.334549 0.867154
vt 0.301605 0.616817
vt 0.529649 0.616817
vt 0.529649 0.909425
vt 0.301605 0.909425
vt 0.602464 0.001839
vt 0.830508 0.001839
vt 0.830508 0.571763
vt 0.602464 0.571763
vt 0.769964 0.575755
vt 0.998008 0.575755
vt 0.998008 0.921468
vt 0.769964 0.921468
vt 0.269250 0.844861
vt 0.238963 0.844861
vt 0.238963 0.616817
vt 0.269250 0.616817
vt 0.012684 0.616817
vt 0.206608 0.616817
vt 0.206608 0.844861
vt 0.012684 0.844861
vn 0.000000 -1.000000 0.000000
vn 0.000000 -1.000000 0.000000
vn 0.000000 -1.000000 0.000000
vn 0.000000 -1.000000 0.000000
vn 0.000000 0.000000 -1.000000
vn 0.000000 0.000000 -1.000000
vn 0.000000 0.000000 -1.000000
vn 0.000000 0.000000 -1.000000
vn 0.000000 0.000000 1.000000
vn 0.000000 0.000000 1.000000
vn 0.000000 0.000000 1.000000
vn 0.000000 0.000000 1.000000
vn 0.000000 1.000000 0.000000
vn 0.000000 1.000000 0.000000
vn 0.000000 1.000000 0.000000
vn 0.000000 1.000000 0.000000
vn 0.000000 0.000000 1.000000
vn 0.000000 0.000000 1.000000
vn 0.000000 0.000000 1.000000
vn 0.000000 0.000000 1.000000
vn 0.000000 -1.000000 0.000000
vn 0.000000 -1.000000 0.000000
vn 0.000000 -1.000000 0.000000
vn 0.000000 -1.000000 0.000000
vn 0.000000 1.000000 0.000000
vn 0.000000 1.000000 0.000000
vn 0.000000 1.000000 0.000000
vn 0.000000 1.000000 0.000000
vn 0.000000 0.000000 1.000000
vn 0.000000 0.000000 1.000000
vn 0.000000 0.000000 1.000000
vn 0.000000 0.000000 1.000000
vn -1.000000 0.000000 0.000000
vn -1.000000 0.000000 0.000000
vn -1.000000 0.000000 0.000000
vn -1.000000 0.000000 0.000000
vn -1.000000 0.000000 0.000000
vn -1.000000 0.000000 0.000000
vn -1.000000 0.000000 0.000000
vn -1.000000 0.000000 0.000000
vn 1.000000 0.000000 0.000000
vn 1.000000 0.000000 0.000000
vn 1.000000 0.000000 0.000000
vn 1.000000 0.000000 0.000000
vn 1.000000 0.000000 0.000000
vn 1.000000 0.000000 0.000000
vn 1.000000 0.000000 0.000000
vn 1.000000 0.000000 0.000000
vn 0.000000 0.717287 0.696778
vn 0.000000 0.717287 0.696778
vn 0.000000 0.717287 0.696778
vn 0.000000 0.717287 0.696778
vn 0.779997 0.625784 0.000000
vn 0.779997 0.625784 0.000000
vn 0.779997 0.625784 0.000000
vn 0.779997 0.625784 0.000000
vn 0.000000 0.717287 -0.696778
vn 0.000000 0.717287 -0.696778
vn 0.000000 0.717287 -0.696778
vn 0.000000 0.717287 -0.696778
vn -0.779997 0.625784 0.000000
vn -0.779997 0.625784 0.000000
vn -0.779997 0.625784 0.000000
vn -0.779997 0.625784 0.000000
s off
g pCube3
usemtl initialShadingGroup
f 1/21/1 2/22/2 3/23/3 4/24/4
f 5/41/5 6/42/6 2/43/7 1/44/8
f 4/45/9 3/46/10 7/47/11 8/48/12
f 9/25/13 8/26/14 7/27/15 10/28/16
f 11/49/17 9/50/18 10/51/19 12/52/20
f 12/29/21 13/30/22 14/31/23 11/32/24
f 17/33/25 18/34/26 19/35/27 20/36/28
f 13/53/29 16/54/30 15/55/31 14/56/32
f 1/1/33 4/2/34 8/3/35 9/4/36 11/5/37 14/6/38 15/7/39 5/8/40
f 3/11/41 2/12/42 6/13/43 16/14/44 13/15/45 12/16/46 10/17/47 7/18/48
f 15/37/49 16/38/50 18/34/51 17/33/52
f 16/14/53 6/13/54 19/19/55 18/20/56
f 6/39/57 5/40/58 20/36/59 19/35/60
f 5/8/61 15/7/62 17/9/63 20/10/64
